<svg width="90" height="144" viewBox="0 0 90 144" fill="none" xmlns="http://www.w3.org/2000/svg">
<path d="M52.8854 110.521C52.9886 110.406 53.0918 110.312 53.1949 110.196C56.4316 106.43 60.312 103.315 64.8334 100.851C66.3231 100.038 67.8389 99.2468 69.407 98.5729C72.4387 97.2477 75.4965 95.9922 78.553 94.6906C79.0936 94.4577 79.6575 94.2721 80.172 94.6906C80.6864 95.1327 80.5324 95.6671 80.2999 96.1553C79.7868 97.1543 79.2724 98.1544 78.6823 99.1073C77.5255 100.875 76.1637 102.501 74.6217 104.036C71.7193 106.942 68.5336 109.545 64.9613 111.755C62.8553 113.056 60.6449 114.172 58.2308 114.939C55.7122 115.753 53.1688 116.52 50.6502 117.31C50.265 117.427 49.9831 117.589 49.8029 117.961C47.4397 122.75 45.1013 127.539 42.7367 132.328C42.712 132.374 42.7367 132.421 42.7367 132.56C42.9939 132.374 43.1741 132.235 43.3791 132.072C45.5896 130.515 47.7726 128.887 50.0601 127.4C53.5031 125.144 57.4082 123.633 61.4674 122.517C64.55 121.658 67.6849 120.937 70.7936 120.146C71.1031 120.076 71.436 120.03 71.7702 120.03C72.7977 120.03 73.4154 120.681 73.209 121.61C73.1059 122.053 72.927 122.471 72.6698 122.866C72.0536 123.773 71.4112 124.703 70.6918 125.54C67.1965 129.632 63.0094 133.048 58.2046 135.838C56.0726 137.094 53.8373 138.186 51.5237 139.139C47.2856 140.883 43.0201 142.603 38.5234 143.812C37.65 144.044 36.8274 144.416 35.9801 144.695C35.4918 144.859 35.1575 145.16 34.8755 145.556C32.8205 148.462 30.7902 151.368 28.6581 154.226C24.8547 159.342 20.5905 164.107 16.0416 168.687C13.8064 170.941 11.3923 173.034 8.74578 174.894C7.69212 175.637 6.53529 176.312 5.40597 176.962C4.19825 177.66 2.86123 178.009 1.44855 178.194C0.934097 178.264 0.498052 178.148 0.214691 177.753C-0.0672947 177.358 -0.0672949 176.94 0.189931 176.544C0.370126 176.265 0.625977 176.01 0.883202 175.8C1.44855 175.358 2.04003 174.94 2.63014 174.545C8.82281 170.431 14.2438 165.618 18.8684 160.085C22.5686 155.645 26.1133 151.089 29.7626 146.579C30.328 145.881 30.328 145.09 30.4298 144.301C30.4559 144.091 30.2509 143.836 30.1217 143.627C29.145 141.836 28.1175 140.069 27.244 138.232C26.0624 135.792 25.5741 133.211 26.0363 130.537C26.3967 128.516 27.1931 126.632 28.2716 124.843C28.504 124.447 28.8369 124.098 29.1973 123.819C29.8906 123.284 30.6361 123.448 31.0213 124.191C31.2014 124.516 31.3032 124.889 31.3816 125.261C32.4862 129.584 32.9745 133.979 32.6141 138.419C32.4862 139.884 32.2551 141.347 32.0488 142.812C32.0226 142.975 31.9979 143.161 31.9718 143.394C32.3321 143.278 32.4339 143.021 32.588 142.812C34.6444 139.79 36.7256 136.791 38.7807 133.769C39.5001 132.723 40.1424 131.653 40.8619 130.631C41.2209 130.12 41.1961 129.678 40.8619 129.166C39.269 126.632 37.7009 124.075 36.1603 121.495C34.9525 119.519 34.4133 117.333 34.1809 115.125C33.5908 109.407 34.1038 103.757 35.826 98.2005C35.9539 97.7359 36.1341 97.2938 36.3391 96.8528C36.7765 96.0158 37.5729 95.9224 38.2415 96.6199C38.3955 96.7831 38.4973 96.945 38.6266 97.1082C40.0393 99.177 41.2731 101.316 42.1975 103.594C42.866 105.222 43.5331 106.826 44.2526 108.406C45.9747 112.289 46.5401 116.311 46.1797 120.448C46.1549 120.658 46.1549 120.843 46.1288 121.052C46.1288 121.1 46.1549 121.146 46.2058 121.262C46.3337 121.052 46.463 120.913 46.5401 120.727C47.7478 118.17 48.9294 115.613 49.7258 112.939C49.906 112.335 50.1371 111.731 50.4191 111.173C51.884 108.383 52.7836 105.431 53.8373 102.501C54.0932 101.758 54.3242 101.037 54.5815 100.293C53.9391 99.8509 53.349 99.4324 52.7575 99.0375C49.5209 96.8055 46.9514 94.0167 44.7161 90.9477C42.3007 87.6234 40.5785 83.9964 39.0888 80.2772C37.9842 77.5108 37.0076 74.6984 36.5193 71.7689C36.2882 70.3041 36.1341 68.8394 36.4422 67.3746C36.5193 67.0259 36.6224 66.6771 36.7765 66.3757C37.1878 65.6308 37.9333 65.4216 38.7036 65.8874C39.1397 66.1428 39.551 66.4678 39.8591 66.8403C40.8619 67.9799 41.8385 69.1184 42.7367 70.3041C46.8221 75.6737 50.4714 81.2998 53.6571 87.1588C54.7878 89.204 55.7631 91.2965 56.3284 93.5285C56.3545 93.6443 56.4316 93.7377 56.6379 93.8536C57.5361 90.9016 58.4096 87.9721 59.2831 85.0426C59.1813 84.9504 59.129 84.8807 59.052 84.857C56.5086 84.0661 54.5815 82.5092 52.8345 80.7418C51.0876 78.9756 49.5718 77.0226 48.3379 74.9076C45.5634 70.1646 43.3021 65.236 41.9925 59.9823C41.4781 57.9371 41.2209 55.8446 40.8619 53.7758C40.811 53.427 40.811 53.0783 40.888 52.7295C41.0159 52.0544 41.6583 51.8689 42.2498 52.2874C42.3268 52.3571 42.4038 52.4269 42.4809 52.4966C42.5827 52.6124 42.6858 52.7295 42.8137 52.8217C50.6254 60.006 55.3009 68.8394 59.1042 78.1386C59.5403 79.2309 59.8237 80.393 60.1827 81.509C60.5431 81.0208 62.8553 72.8151 62.9324 71.815C61.9557 71.0253 61.0314 70.258 60.0795 69.5132C59.0011 68.6762 58.0244 67.747 57.2789 66.6771C56.2775 65.236 55.25 63.8186 54.4274 62.2841C51.3957 56.658 49.0326 50.8002 47.6185 44.6385C47.1825 42.7565 46.8482 40.8496 46.8743 38.9202C46.8743 38.432 46.9252 37.92 47.0532 37.433C47.2856 36.5263 48.0821 36.2697 48.8524 36.8514C49.4438 37.2699 49.9569 37.7581 50.4452 38.2688C53.3738 41.3839 56.0203 44.6622 58.0506 48.3353C60.0025 51.8452 61.9048 55.3564 63.2914 59.0992C63.8306 60.5403 64.191 62.0275 64.6284 63.4923C64.6793 63.7015 64.7302 63.9108 64.8334 64.2595C64.9613 63.9581 65.0136 63.7949 65.0645 63.6318C65.6807 61.1444 66.2722 58.6571 66.8884 56.1697C66.9654 55.9144 67.0425 55.6117 67.0177 55.3564C66.9916 55.0774 66.8884 54.7523 66.6835 54.543C64.0878 51.8228 61.9557 48.7998 60.0547 45.6847C56.6888 40.1757 54.4013 34.3179 52.9116 28.1799C52.2953 25.6926 52.2692 23.1815 52.2183 20.6481C52.2183 20.2994 52.2692 19.9506 52.3724 19.6255C52.6035 18.9044 53.3229 18.6951 54.0161 19.1136C54.2995 19.2992 54.5815 19.5321 54.7878 19.765C55.3779 20.4625 55.9955 21.1364 56.5086 21.8563C59.2322 25.6228 61.6738 29.5512 63.8829 33.5731C66.2213 37.8279 67.6601 42.3604 68.5336 47.0337C68.5583 47.2192 68.6354 47.3824 68.8156 47.568C68.9448 47.01 69.0728 46.4757 69.1759 45.9177C70.1003 41.4312 70.9999 36.9211 71.9243 32.4347C72.0013 32.0162 71.9765 31.6674 71.7963 31.2713C71.3342 30.3422 71.231 29.342 71.2049 28.3431C71.0247 21.5773 72.5928 15.1852 76.6259 9.39589C78.1169 7.2573 79.6328 5.14236 81.1225 3.00377C81.6617 2.23652 82.15 1.46926 82.6645 0.702009C82.7676 0.562509 82.8447 0.399343 82.9726 0.259842C83.3577 -0.111329 83.9492 -0.0889098 84.2312 0.353258C84.3853 0.584928 84.4623 0.86393 84.5393 1.12051C85.5421 4.81603 85.6191 8.53647 85.0029 12.2793C84.7966 13.6046 84.4884 14.9286 84.1803 16.2538C83.4609 19.5321 82.0221 22.5538 80.0179 25.3438C78.9134 26.8783 77.7057 28.3194 76.4979 29.7842C75.5736 30.9226 74.5969 32.0623 73.6712 33.2019C73.4924 33.4112 73.3631 33.6665 73.286 33.9455C72.2847 38.6873 71.308 43.4303 70.3314 48.1497C70.3314 48.1958 70.3575 48.2418 70.3837 48.4287C70.5886 48.126 70.7427 47.9168 70.8967 47.7075C73.5942 43.733 76.3177 39.7572 79.5558 36.1078C82.2271 33.0848 85.1817 30.3422 88.4459 27.8772C88.4706 27.8548 88.4968 27.8548 88.4968 27.8312C88.8049 27.6219 89.0869 27.3205 89.5243 27.5285C89.9094 27.7153 89.8324 28.0865 89.8324 28.3892C89.7815 30.4119 89.9865 32.4571 89.3193 34.4101C88.8558 35.759 88.4197 37.154 87.7774 38.432C85.593 42.8486 82.6645 46.8244 78.9381 50.3119C77.4223 51.7294 75.7015 52.8914 73.7482 53.7521C72.773 54.1943 71.8995 54.751 71.1278 55.4261C70.3575 56.0763 69.5859 56.7041 68.7894 57.3555C68.2254 57.8201 67.8651 58.3544 67.6849 59.0519C66.6835 63.1435 65.6559 67.2351 64.6532 71.3267C64.6023 71.536 64.55 71.7689 64.6532 72.0242C64.8072 71.7452 64.9613 71.4662 65.1153 71.1872C67.2736 67.3522 69.8692 63.8186 73.3122 60.8193C74.3906 59.8665 75.5213 58.9361 76.7552 58.1451C80.0441 56.0302 83.3839 54.0075 86.7237 51.9386C87.0579 51.7294 87.417 51.5438 87.8035 51.4043C88.5999 51.1016 89.2423 51.4504 89.3193 52.2413C89.3441 52.6124 89.3193 53.0085 89.2162 53.3573C89.036 53.9614 88.8558 54.5655 88.5738 55.1235C84.9506 62.3999 79.7868 68.5604 72.5157 73.1639C70.2544 74.5813 67.8912 75.9066 65.5789 77.2555C65.3726 77.3713 65.1676 77.5108 64.9365 77.5806C63.1635 78.1622 62.4949 79.5099 62.0328 80.9983C61.1593 83.8805 60.3367 86.7864 59.4894 89.6922C59.3353 90.2266 59.1813 90.7385 59.1042 91.3201C59.1813 91.2267 59.2831 91.157 59.3353 91.0636C62.367 86.6469 66.4262 83.183 71.1801 80.3233C74.7771 78.1622 78.6053 76.3948 82.4072 74.5589C82.7415 74.3957 83.1266 74.2799 83.487 74.1865C84.3853 74.0009 85.1047 74.4891 85.1047 75.3249C85.1047 75.721 85.0276 76.1395 84.8736 76.4882C84.5393 77.2555 84.2065 78.0227 83.7429 78.7427C80.8653 83.3686 77.1403 87.3444 72.6437 90.7385C70.4084 92.4125 67.9159 93.6904 65.2447 94.6669C63.8306 95.1788 62.4441 95.7368 61.0823 96.3173C59.4894 96.9923 58.1015 97.9215 56.8429 99.0139C56.3545 99.4324 56.2514 99.9679 56.0726 100.479C54.9419 103.617 53.8373 106.756 52.7314 109.894C52.6805 110.057 52.6296 110.22 52.6035 110.359C52.8084 110.499 52.8607 110.499 52.8854 110.521ZM38.1122 140.58C38.1644 140.604 38.1892 140.627 38.2415 140.65C38.3432 140.58 38.4725 140.51 38.5743 140.441C42.0434 138.349 45.4864 136.233 48.9555 134.164C51.4728 132.677 54.1702 131.444 56.9199 130.352C57.1248 130.282 57.3312 130.212 57.5361 130.142C54.9419 131.886 52.3462 133.583 49.7258 135.257C46.7203 137.164 43.7133 139.047 40.6817 140.952C40.4506 141.092 40.2456 141.255 40.0393 141.417C40.0654 141.464 40.1163 141.534 40.1424 141.58C41.17 141.208 42.2236 140.813 43.2512 140.441C44.4589 140 45.6405 139.488 46.8743 139.163C50.6502 138.116 54.1454 136.536 57.4591 134.629C61.9048 132.049 65.8609 128.957 69.1498 125.214C69.9462 124.307 70.6395 123.284 71.3342 122.308C71.513 122.053 71.59 121.75 71.7702 121.331C71.3342 121.379 71.0508 121.379 70.7936 121.425C68.3025 121.797 65.8609 122.308 63.4716 122.982C60.1056 123.936 56.7397 124.982 53.708 126.632C49.2114 129.074 45.1274 132.002 41.4781 135.396C40.8619 135.954 40.3997 136.582 40.0131 137.279C39.5001 138.232 38.9086 139.186 38.3694 140.139C38.2662 140.231 38.1892 140.418 38.1122 140.58ZM46.232 81.4168C46.2829 81.3932 46.3337 81.3932 46.4108 81.3695C49.3407 86.972 52.2692 92.5744 55.1991 98.1781C55.404 97.8293 55.532 97.4569 55.5072 97.1082C55.4811 96.387 55.404 95.6671 55.2761 94.9459C54.8387 92.5059 53.8373 90.2266 52.6543 88.0182C51.73 86.2981 50.7534 84.578 49.829 82.8579C47.4644 78.4412 44.5098 74.326 41.4533 70.3041C40.6817 69.3039 39.7573 68.3984 38.8838 67.468C38.6527 67.2351 38.3432 67.0732 38.0613 66.8403C37.727 67.3285 37.65 67.7931 37.6761 68.2589C37.727 69.3513 37.7779 70.4436 37.9072 71.536C38.2662 74.0931 39.1149 76.558 39.9884 78.998C41.4011 82.9277 43.148 86.7166 45.7436 90.1568C47.6185 92.6442 49.752 94.9235 52.4494 96.7358C52.6543 96.8753 52.8854 97.0148 53.0918 97.1543C50.265 92.1098 48.005 86.8561 46.232 81.4168ZM48.3902 37.9674C48.3131 37.991 48.2609 38.0135 48.1838 38.0371C48.133 38.2688 48.0559 38.5254 48.0559 38.757C48.0821 39.8033 48.0298 40.8496 48.1591 41.8958C48.5951 45.3833 49.6997 48.7538 50.9844 52.032C52.012 54.6128 53.0656 57.216 54.6585 59.5638C56.8167 62.725 59.2831 65.7243 61.8017 68.6538C61.9048 68.7696 62.0589 68.8394 62.213 68.9789C60.671 66.073 59.129 63.2369 57.6902 60.3772C56.1235 57.3094 54.3242 52.5203 54.2995 51.6833C57.3821 57.4016 60.4908 63.2133 63.6518 69.0723C63.6518 68.6538 63.6518 68.305 63.6518 67.9563C63.7536 64.8873 63.0094 61.9577 61.8526 59.0992C60.594 55.9605 59.0011 52.9849 57.4082 49.9856C55.3532 46.1269 52.7575 42.617 49.752 39.3387C49.3407 38.8505 48.8524 38.432 48.3902 37.9674ZM59.4633 84.578C59.3092 83.9964 59.1813 83.5779 59.052 83.1594C58.6668 81.7656 58.3326 80.3469 57.8704 78.9519C56.1496 73.8614 53.631 69.0486 50.8827 64.3529C48.6983 60.6562 46.0518 57.3318 42.8137 54.3562C42.6349 54.1943 42.4286 54.0311 42.1205 53.7758C42.1205 54.2404 42.0943 54.543 42.1205 54.8681C42.3777 57.0765 42.712 59.2848 43.3543 61.4234C44.8702 66.4454 47.1563 71.1648 50.1632 75.5815C51.73 77.8832 53.6048 79.9745 55.8662 81.7656C56.8938 82.5553 57.8704 83.3923 58.8732 84.2293C59.052 84.3227 59.206 84.4149 59.4633 84.578ZM37.4698 97.6662C37.368 97.8518 37.3157 97.9215 37.291 97.9913C37.1878 98.2939 37.0585 98.619 36.9567 98.9217C35.6967 102.99 35.2607 107.151 35.2345 111.358C35.2098 113.288 35.5179 115.125 36.3143 116.915C37.368 119.286 38.2924 121.68 39.6803 123.912C39.8082 124.121 39.9623 124.331 40.0916 124.516C39.3969 119.542 38.2662 114.66 37.9842 109.545C38.6005 111.661 39.192 113.637 39.7573 115.637C40.2965 117.636 40.8357 119.659 41.324 121.68C41.7862 123.679 42.1466 125.702 42.5579 127.841C43.071 127.19 43.4561 126.632 43.5593 125.935C43.6363 125.47 43.7395 125.005 43.8426 124.54C44.5098 121.82 44.69 119.053 44.4328 116.265C44.2278 113.963 43.6363 111.731 43.1232 109.476C42.9692 108.779 42.6858 108.081 42.4038 107.406C41.9664 106.338 41.5042 105.268 41.0668 104.175C40.2456 102.13 39.2428 100.154 37.9581 98.3176C37.8302 98.1544 37.6761 97.9688 37.4698 97.6662ZM53.6048 20.4389C53.5801 20.7179 53.5278 20.9034 53.5278 21.1127C53.4769 24.2751 53.708 27.4126 54.6076 30.458C56.6627 37.3633 59.7714 43.8251 64.4991 49.6144C64.55 49.6842 64.6284 49.7066 64.7054 49.7539C63.0342 46.0111 61.6738 42.1985 60.4399 38.3385C60.9282 39.036 61.3134 39.7809 61.7508 40.5008C63.6518 43.5237 65.2694 46.6612 66.6573 49.8934C66.7082 49.9856 66.7866 50.079 66.9654 50.3119C66.9654 48.7774 66.8375 47.4285 66.5542 46.1269C66.2213 44.57 65.733 43.0118 65.4496 41.4312C65.1415 39.7335 64.5761 38.1305 63.8567 36.5724C61.5706 31.6674 58.7177 27.0178 55.5581 22.5314C55.1207 21.926 54.6076 21.368 54.0932 20.8113C53.9914 20.6942 53.8112 20.602 53.6048 20.4389ZM59.2831 93.8075C59.3353 93.8299 59.3601 93.8536 59.4124 93.8772C59.5403 93.7838 59.6696 93.7141 59.7714 93.5982C61.7755 91.8308 63.9338 90.2502 66.1951 88.763C67.6601 87.7865 69.253 86.972 70.7936 86.1125C70.9476 86.0191 71.154 85.973 71.3342 85.9033C69.8183 87.2049 68.2502 88.4367 66.7082 89.6922C64.3712 91.5991 62.0328 93.5048 59.6944 95.4118C59.4633 95.5973 59.2831 95.8066 59.052 96.0158C59.8237 95.7829 60.4908 95.4578 61.1854 95.1552C62.8553 94.4577 64.55 93.7602 66.2213 93.0627C68.2254 92.2493 70.1003 91.2504 71.7963 89.9949C76.1389 86.7166 79.7868 82.904 82.5352 78.4176C82.9217 77.7898 83.2298 77.116 83.5379 76.4409C83.6411 76.2317 83.6411 75.9763 83.7181 75.6276C83.2807 75.7907 82.9987 75.8829 82.7415 76.0224C79.9918 77.395 77.1912 78.6966 74.4676 80.1377C71.3589 81.7656 68.5074 83.7647 65.887 85.973C63.4454 88.0182 61.3643 90.3436 59.7205 92.9705C59.5926 93.2495 59.4371 93.5285 59.2831 93.8075ZM71.6932 53.2875C73.9023 52.7059 76.0866 51.5674 77.7565 50.1488C82.2271 46.3125 85.593 41.8024 87.8805 36.596C88.9589 34.1548 89.3702 31.6438 89.2162 29.0406C89.2162 28.9235 89.1639 28.8313 89.113 28.7142C89.0098 28.7616 88.9328 28.7616 88.908 28.784C88.6247 28.9932 88.3675 29.2025 88.0855 29.4117C85.4128 31.6201 82.8185 33.9218 80.7635 36.6421C77.6286 40.7574 74.7771 45.0346 72.0013 49.3578C71.3851 50.3119 70.8967 51.3109 70.3575 52.311C70.2805 52.4505 70.2282 52.6124 70.1773 52.7519C70.6918 52.4269 71.0769 52.0544 71.4621 51.6833C71.8472 51.3109 72.2585 50.916 72.6437 50.5436C73.055 50.1724 73.4662 49.8 73.8514 49.4052C74.2627 49.0328 74.6478 48.6379 75.033 48.2655C75.4181 47.8943 75.7785 47.5219 76.1375 47.1495C76.5241 46.7547 76.9092 46.3598 77.2682 45.9637C77.6534 45.5689 78.0399 45.1741 78.4251 44.7792C78.8102 44.3832 79.1954 43.9883 79.5805 43.6159C79.967 43.2211 80.3522 42.8262 80.7373 42.4538C81.0964 42.0814 81.4567 41.7326 81.8158 41.3615C79.1445 45.7545 75.6245 49.5671 71.6932 53.2875ZM78.3742 96.4568C78.3219 96.4107 78.271 96.3646 78.2187 96.3173C77.9367 96.4107 77.6548 96.5041 77.3714 96.6199C73.6203 98.0386 69.9971 99.6889 66.5033 101.525C65.9118 101.828 65.3478 102.222 64.8334 102.618C61.5445 105.036 58.4866 107.639 55.609 110.452C54.5567 111.475 53.6048 112.568 52.6035 113.637C52.5003 113.754 52.4233 113.893 52.3462 114.009C52.6805 113.893 52.9116 113.706 53.1427 113.544C54.5815 112.544 56.0203 111.522 57.4852 110.545C59.6944 109.08 62.0328 107.802 64.55 106.826C64.8072 106.732 65.0645 106.639 65.3217 106.569C60.4908 109.267 56.0726 112.382 52.0381 115.962C55.7383 114.613 59.5142 113.427 62.9062 111.498C67.5308 108.871 71.4621 105.524 74.7771 101.595C76.1375 99.9679 77.4223 98.3176 78.3742 96.4568ZM72.9009 27.5758C72.9518 27.3429 73.0288 27.1112 73.0811 26.8546C73.7482 24.0185 74.3397 21.1824 75.0853 18.37C75.3934 17.2079 75.9587 16.1143 76.447 14.9983C76.5241 14.8364 76.6781 14.6969 76.7799 14.5574C76.1375 20.0204 75.0591 25.3675 74.1348 30.7607C74.3658 30.5975 74.5199 30.3882 74.674 30.2027C75.5736 28.9932 76.4209 27.7851 77.3714 26.5993C80.2229 23.0657 82.073 19.1834 82.9726 14.8825C83.769 10.9765 84.1294 7.07171 83.5118 3.11961C83.4609 2.86427 83.41 2.58527 83.3316 2.1431C83.0496 2.51552 82.8694 2.72477 82.7154 2.93402C81.3027 5.02528 79.9148 7.11779 78.476 9.18664C75.7276 13.1163 74.0055 17.3474 73.286 21.9497C73.0288 23.8093 72.7468 25.6689 72.9009 27.5758ZM87.8544 52.9849C87.3399 53.2402 86.9809 53.427 86.6205 53.6126C83.3316 55.4025 80.249 57.4713 77.2944 59.6796C72.1554 63.5159 68.3534 68.2814 65.5528 73.7219C65.4757 73.8838 65.4248 74.0706 65.3478 74.2562C68.7124 71.2109 71.9243 68.0958 75.3934 65.1899C75.4443 65.236 75.4704 65.2597 75.5213 65.3058C72.0783 68.8394 68.6615 72.3966 65.1153 76.0461C65.3726 75.9302 65.4757 75.9066 65.5528 75.8605C68.8926 74.0233 72.0783 72.0242 75.0853 69.7922C80.5324 65.7243 84.2065 60.4245 87.2629 54.7523C87.4692 54.4035 87.571 54.0075 87.7265 53.6363C87.7774 53.4731 87.8035 53.3099 87.8544 52.9849ZM30.0199 124.749C29.8397 124.889 29.7365 124.935 29.6856 125.028C29.5315 125.214 29.4022 125.401 29.2743 125.586C28.4779 126.934 27.8864 128.353 27.5012 129.841C27.2193 130.979 27.167 132.095 27.2963 133.258C27.6292 135.908 28.7351 138.326 29.9167 140.72C29.9428 140.767 30.0199 140.813 30.1478 140.929C30.0708 139.906 29.9676 138.977 29.9428 138.047C29.9167 137.094 29.9167 136.141 29.9676 135.211C30.0199 134.304 30.1217 133.373 30.1987 132.468C30.3527 133.676 30.405 134.862 30.5068 136.048C30.6361 137.256 30.8163 138.465 30.9704 139.675C31.0213 139.675 31.0983 139.651 31.1492 139.651C31.8177 134.629 31.6898 129.678 30.0199 124.749Z" fill="#6A7F30" fill-opacity="0.5"/>
</svg>
