<svg width="186" height="28" viewBox="0 0 186 28" fill="none" xmlns="http://www.w3.org/2000/svg">
  <path
    d="M38.24 20.7041C37.952 20.8961 37.56 21.1121 37.064 21.3521C36.568 21.5921 35.984 21.7921 35.312 21.9521C34.656 22.1121 33.936 22.1921 33.152 22.1921C31.808 22.1761 30.592 21.9361 29.504 21.4721C28.432 21.0081 27.52 20.3761 26.768 19.5761C26.016 18.7761 25.432 17.8561 25.016 16.8161C24.616 15.7601 24.416 14.6401 24.416 13.4561C24.416 12.1601 24.624 10.9681 25.04 9.88006C25.472 8.77606 26.072 7.82406 26.84 7.02406C27.608 6.20806 28.512 5.57606 29.552 5.12806C30.608 4.68006 31.76 4.45606 33.008 4.45606C34.048 4.45606 34.992 4.60006 35.84 4.88806C36.688 5.16006 37.416 5.48806 38.024 5.87206L37.088 8.03206C36.608 7.71206 36.024 7.40806 35.336 7.12006C34.664 6.83206 33.912 6.68806 33.08 6.68806C32.232 6.68806 31.432 6.85606 30.68 7.19206C29.928 7.52806 29.264 8.00006 28.688 8.60806C28.112 9.21606 27.656 9.92806 27.32 10.7441C27 11.5441 26.84 12.4081 26.84 13.3361C26.84 14.2801 26.984 15.1601 27.272 15.9761C27.576 16.7761 28 17.4721 28.544 18.0641C29.104 18.6561 29.776 19.1201 30.56 19.4561C31.344 19.7921 32.224 19.9601 33.2 19.9601C34.08 19.9601 34.864 19.8241 35.552 19.5521C36.24 19.2801 36.808 18.9761 37.256 18.6401L38.24 20.7041ZM40.4321 22.0001L48.0161 3.92806H48.1601L55.7201 22.0001H53.0561L47.3921 7.57606L49.0481 6.49606L42.7121 22.0001H40.4321ZM44.8721 15.4241H51.3281L52.0961 17.4401H44.2001L44.8721 15.4241ZM58.9882 22.0001V4.09606H59.0122L68.1082 17.0081L67.1242 16.8161L76.1962 4.09606H76.2442V22.0001H73.9402V9.37606L74.0842 10.5521L67.5322 19.8161H67.4842L60.8362 10.5521L61.2442 9.47206V22.0001H58.9882ZM85.8624 4.64806C87.1264 4.64806 88.2064 4.86406 89.1024 5.29606C89.9984 5.71206 90.6864 6.32006 91.1664 7.12006C91.6624 7.92006 91.9104 8.88806 91.9104 10.0241C91.9104 10.7121 91.8064 11.3921 91.5984 12.0641C91.3904 12.7201 91.0544 13.3201 90.5904 13.8641C90.1424 14.3921 89.5504 14.8161 88.8144 15.1361C88.0784 15.4561 87.1824 15.6161 86.1264 15.6161H83.5584V22.0001H81.2304V4.64806H85.8624ZM86.1024 13.3841C86.7904 13.3841 87.3584 13.2721 87.8064 13.0481C88.2544 12.8241 88.6064 12.5441 88.8624 12.2081C89.1184 11.8561 89.3024 11.4881 89.4144 11.1041C89.5264 10.7201 89.5824 10.3761 89.5824 10.0721C89.5824 9.72006 89.5264 9.36006 89.4144 8.99206C89.3024 8.60806 89.1104 8.26406 88.8384 7.96006C88.5824 7.64006 88.2384 7.38406 87.8064 7.19206C87.3904 6.98406 86.8704 6.88006 86.2464 6.88006H83.5584V13.3841H86.1024Z"
    fill="black"
  />
  <path
    d="M99.888 4.624H103.152L107.472 17.008L107.016 16.816L110.376 8.2L111.672 11.992L106.872 22.816L99.888 4.624ZM108.456 4.624H111.216L116.016 16.744L115.464 16.648L119.448 4.624H122.448L115.632 22.768L108.456 4.624ZM121.631 22L129.359 3.808H129.527L137.255 22H134.039L128.591 8.2L130.607 6.832L124.391 22H121.631ZM126.479 15.52H132.455L133.415 17.896H125.639L126.479 15.52ZM137.605 4.528H149.293V7.216H144.781V22H141.997V7.216H137.605V4.528Z"
    fill="#275942"
  />
  <path
    d="M163.344 4.528C164.672 4.528 165.808 4.752 166.752 5.2C167.696 5.648 168.416 6.288 168.912 7.12C169.424 7.952 169.68 8.96 169.68 10.144C169.68 10.832 169.568 11.52 169.344 12.208C169.136 12.896 168.8 13.52 168.336 14.08C167.888 14.64 167.28 15.096 166.512 15.448C165.76 15.784 164.832 15.952 163.728 15.952H161.208V22H158.4V4.528H163.344ZM163.728 13.24C164.336 13.24 164.848 13.136 165.264 12.928C165.68 12.72 166 12.456 166.224 12.136C166.464 11.816 166.632 11.488 166.728 11.152C166.84 10.8 166.896 10.488 166.896 10.216C166.896 9.928 166.848 9.616 166.752 9.28C166.656 8.928 166.496 8.6 166.272 8.296C166.048 7.976 165.736 7.72 165.336 7.528C164.936 7.32 164.424 7.216 163.8 7.216H161.208V13.24H163.728ZM169.537 22L177.265 3.808H177.433L185.161 22H181.945L176.497 8.2L178.513 6.832L172.297 22H169.537ZM174.385 15.52H180.361L181.321 17.896H173.545L174.385 15.52Z"
    fill="#275942"
  />
  <path
    d="M17.912 9.53844C17.5957 7.62882 16.4724 5.93209 14.9649 4.74571C14.0653 4.03792 13.0489 3.50139 11.9827 3.09191C10.6971 2.59787 9.00643 2.55881 7.87843 1.73556C7.82649 1.54927 7.77456 1.36428 7.72262 1.17714C7.6694 0.985702 7.37151 0.924752 7.27623 1.11876C5.4503 4.83499 0.0330552 8.12972 1.15033 12.8787C2.00277 16.503 6.24523 17.8924 9.6683 17.7881C9.65413 19.3582 9.59104 20.9159 9.48502 22.4427C9.46055 22.7972 9.98721 22.7813 10.0284 22.4427C10.2181 20.8751 10.3237 19.3106 10.3555 17.7461C10.4718 17.7353 10.5907 17.7276 10.7044 17.7135C14.7151 17.204 18.6412 13.9358 17.912 9.53844ZM10.3181 3.52843C10.0924 3.75892 9.88677 4.02376 9.69276 4.25167C9.40346 4.59162 9.12661 4.94101 8.84976 5.29083C8.62485 4.42422 8.38749 3.55848 8.14369 2.68715C8.7974 3.09234 9.53567 3.28163 10.3181 3.52843ZM7.42388 2.10126C7.46981 2.15019 7.51831 2.19182 7.56552 2.23689C8.07716 3.79927 8.47548 5.41058 8.78452 7.04893C7.72519 6.3596 6.50362 5.82521 5.3812 5.2698C6.16711 4.28515 6.91782 3.27905 7.42388 2.10126ZM5.06443 5.66511C6.29931 6.41153 7.58355 7.30003 8.92574 7.82798C9.09957 8.84867 9.24122 9.87838 9.35067 10.9132C7.39855 9.84233 5.34772 8.91735 3.32693 7.98121C3.84929 7.16568 4.45879 6.41583 5.06443 5.66511ZM2.65648 9.18046C2.79297 8.88988 2.94535 8.61088 3.10631 8.33832C5.12409 9.43456 7.15003 10.5664 9.24122 11.512C9.30302 11.5399 9.36183 11.5416 9.41677 11.5326C9.5215 12.649 9.59275 13.7697 9.63181 14.8896C7.13844 13.5375 4.62061 12.2151 2.12252 10.869C2.20579 10.3385 2.37705 9.7758 2.65648 9.18046ZM2.09076 11.1214C4.26607 12.9199 6.97062 14.4788 9.6434 15.3974C9.65585 15.8648 9.6683 16.3318 9.67087 16.7979C5.9628 16.9344 1.69587 14.8926 2.09076 11.1214ZM9.72324 9.19248C9.65027 8.78729 9.5773 8.38211 9.49274 7.98207C9.62795 7.92498 9.70693 7.72668 9.5743 7.61766C9.51163 7.56615 9.44381 7.51979 9.37943 7.47C9.2468 6.87467 9.10172 6.2832 8.95192 5.69258C9.32577 5.33933 9.69662 4.98393 10.0567 4.61566C10.325 4.34181 10.6568 4.04865 10.889 3.72029C11.8526 4.05766 12.7836 4.48045 13.6275 5.03673C13.609 5.04445 13.591 5.04874 13.5725 5.06248C12.1097 6.13382 10.7216 7.64555 9.72324 9.19248ZM10.0499 11.3283C9.98292 10.7557 9.90094 10.1904 9.80694 9.63072C10.4907 8.96242 11.1152 8.23359 11.7878 7.5537C12.4797 6.85406 13.2218 6.19306 13.8829 5.46466C13.9391 5.40243 13.9515 5.32474 13.9399 5.25048C14.4284 5.60287 14.8851 6.00248 15.2916 6.46948C15.5092 6.71929 15.6989 6.97124 15.8697 7.22406C14.8478 7.95631 13.9914 8.95512 13.1103 9.84662C12.1415 10.827 11.1671 11.8017 10.195 12.7787C10.1537 12.2958 10.1061 11.8125 10.0499 11.3283ZM10.5173 13.2581C11.5384 12.2782 12.5578 11.2961 13.5824 10.3196C14.4576 9.48521 15.4306 8.67312 16.1723 7.71166C16.7016 8.65767 16.9239 9.61226 16.902 10.5304C14.9602 12.7289 12.8038 14.4149 10.3593 16.036C10.3568 16.0378 10.3559 16.0399 10.3533 16.0416C10.3375 15.1342 10.3018 14.2264 10.2344 13.3182C10.3237 13.3512 10.4276 13.3439 10.5173 13.2581ZM10.3679 16.7451C10.3679 16.6314 10.3619 16.5176 10.3611 16.4039C10.4212 16.4417 10.4993 16.4558 10.5843 16.4198C12.9175 15.4334 15.0336 13.7337 16.7123 11.7983C16.0037 14.344 13.4202 16.382 10.3679 16.7451Z"
    fill="#275942"
    stroke="#275942"
    stroke-width="0.5"
  />
</svg>
