<svg width="164" height="166" viewBox="0 0 164 166" fill="none" xmlns="http://www.w3.org/2000/svg">
<path d="M134.742 151.385L134.668 151.365L133.55 151.067C127.913 149.507 122.873 146.104 119.182 141.602C116.719 138.66 114.811 135.296 113.077 131.891C112.495 130.751 111.622 129.042 110.971 127.967C110.854 127.759 110.669 127.484 110.539 127.282C110.421 127.098 110.284 126.918 110.159 126.743C110.127 126.699 110.127 126.695 110.042 126.588C109.982 126.509 109.923 126.416 109.87 126.311C105.003 122.937 99.5868 120.422 93.6471 119.513C86.3103 118.339 78.8726 119.365 71.5784 120.9C64.3173 123.233 57.4231 126.461 51.0339 130.494C47.9693 132.749 44.8908 134.983 41.8043 137.199C41.7606 137.228 41.7157 137.254 41.6733 137.278C39.3417 139.206 37.103 141.256 34.9643 143.42C35.212 143.287 35.4573 143.159 35.6943 143.037C44.157 138.702 53.4067 136.247 62.7745 135.076C62.7851 135.072 62.7934 135.069 62.804 135.065C64.5213 134.402 66.5508 133.482 68.2681 132.826C72.0186 131.358 75.8912 130.16 79.8987 129.669C84.7761 129.047 90.0409 129.656 94.1279 132.504C95.4853 133.428 96.6871 134.574 97.6975 135.859C98.0143 136.155 97.9392 136.707 97.5546 136.921L97.4874 136.958L96.4705 137.532C91.304 140.394 85.2763 141.541 79.4536 140.967C75.6117 140.626 71.873 139.603 68.2343 138.426C67.0132 138.033 65.1856 137.445 63.9614 137.146C63.7306 137.083 63.4036 137.018 63.1681 136.969C62.9923 136.931 62.8118 136.904 62.6347 136.875C53.3741 138.277 44.172 140.936 35.9559 145.532C35.228 145.949 34.3087 146.503 33.6005 146.953C31.3727 148.413 29.1209 150.075 27.4166 152.097C27.4048 152.111 27.3917 152.124 27.3799 152.138C25.4019 154.724 23.5474 157.429 21.8305 160.248C21.459 160.858 20.6684 161.058 20.0633 160.696C19.7164 160.488 19.5069 160.141 19.4608 159.767C19.4268 159.487 19.4821 159.194 19.6417 158.933C21.3967 156.048 23.3131 153.253 25.3717 150.571C25.399 150.532 25.4287 150.493 25.4607 150.456C27.505 147.802 29.6892 145.255 32.0015 142.833C36.7102 137.905 41.9592 133.487 47.602 129.705C49.157 128.661 50.7445 127.668 52.3598 126.722C59.1443 121.904 65.8476 116.973 72.4128 111.863C72.5919 111.638 72.7489 111.402 72.9095 111.153C73.8949 109.595 74.9764 107.645 75.9687 106.092C78.1088 102.671 80.5094 99.3889 83.4484 96.5845C87.0067 93.1527 91.62 90.4586 96.63 90.2438C98.2814 90.1558 99.9411 90.3343 101.531 90.741C101.966 90.7841 102.238 91.2649 102.056 91.6652L102.024 91.7346L101.55 92.8012C99.1052 98.1759 94.9351 102.716 89.8926 105.776C86.5891 107.824 82.9562 109.268 79.3142 110.534C78.092 110.96 76.2645 111.598 75.0968 112.1C74.9343 112.164 74.7303 112.258 74.5476 112.345C70.8661 115.355 67.137 118.308 63.3707 121.211C64.2308 120.851 65.0943 120.502 65.9636 120.167C67.5761 119.548 69.2058 118.974 70.8539 118.445C70.8821 118.435 70.9092 118.425 70.9386 118.416C76.0324 116.786 81.2786 115.591 86.5995 114.854C88.1957 114.632 89.815 114.451 91.414 114.313C96.3589 113.888 101.089 112.81 105.729 111.024L106.92 110.602C108.067 110.193 109.389 109.752 110.566 109.427C110.739 109.374 110.934 109.316 111.141 109.261C111.252 109.211 111.362 109.159 111.473 109.107C113.129 108.299 115.074 107.211 116.73 106.41C118.894 105.343 121.092 104.373 123.378 103.583C129.313 101.503 136.224 100.593 141.953 103.569C143.597 104.416 145.088 105.553 146.347 106.898C146.689 107.167 146.662 107.722 146.296 107.966L146.233 108.01L145.267 108.669C140.359 111.96 134.445 113.619 128.588 113.55C124.725 113.542 120.909 112.843 117.178 111.986C115.927 111.7 114.053 111.272 112.805 111.079C112.623 111.046 112.381 111.017 112.171 110.992C108.603 112.031 105.228 113.615 101.662 114.773C100.957 114.987 100.205 115.204 99.4981 115.407C99.1546 115.492 98.2605 115.704 97.9323 115.785C97.1981 115.977 96.1611 116.15 95.4156 116.296C94.5206 116.486 92.7025 116.712 91.7315 116.857C91.7256 116.858 91.7186 116.858 91.7127 116.859C91.6833 116.863 91.6528 116.868 91.6246 116.873C91.6163 116.874 91.6081 116.873 91.5999 116.874L91.5987 116.875C91.2263 116.907 90.855 116.942 90.4825 116.979C98.4226 117.754 105.4 120.574 112.276 125.931C113.812 126.57 115.572 127.231 117.026 127.868C120.692 129.439 124.256 131.292 127.415 133.752C131.279 136.725 134.553 140.861 135.428 145.788C135.734 147.408 135.776 149.079 135.586 150.717C135.599 151.155 135.161 151.502 134.742 151.385ZM119.664 107.212C119.122 107.434 118.583 107.663 118.044 107.893C118.482 107.834 118.914 107.777 119.327 107.721C120.23 107.635 121.574 107.499 122.476 107.413C123.638 107.349 125.725 107.192 126.882 107.162C127.729 107.134 129.795 107.078 130.655 107.05C131.038 107.038 131.354 107.34 131.359 107.724C131.365 108.107 131.058 108.427 130.678 108.438L128.189 108.584C127.466 108.63 126.412 108.679 125.703 108.753C124.814 108.839 122.837 108.992 121.99 109.112C121.372 109.191 120.143 109.349 119.527 109.428C118.582 109.577 117.425 109.777 116.478 109.946C116.448 109.954 116.415 109.961 116.384 109.968C117.535 110.168 118.684 110.386 119.787 110.57C124.146 111.324 128.596 111.747 133.008 111.137C136.289 110.706 139.482 109.736 142.499 108.348C143.178 108.034 143.888 107.67 144.578 107.306C137.158 101.754 127.821 103.86 119.664 107.212ZM76.4916 108.648C81.3073 104.806 86.0416 100.86 90.6667 96.7783C90.9258 96.5501 91.3177 96.5734 91.5397 96.8291C91.7606 97.0813 91.7351 97.4653 91.4866 97.6923C87.3877 101.463 83.1981 105.129 78.9353 108.71C79.5644 108.457 80.1876 108.207 80.7896 107.958C84.9142 106.271 88.9405 104.258 92.3859 101.398C94.9609 99.2892 97.173 96.777 99.014 94.0042C99.4255 93.3794 99.8399 92.6982 100.235 92.0242C90.9447 91.3117 84.0874 98.0491 78.9007 105.203C78.0751 106.334 77.2811 107.487 76.4916 108.648ZM69.3248 134.458C69.3741 134.455 69.4246 134.452 69.474 134.449C73.1787 134.221 77.052 134.179 80.7535 134.325L82.6301 134.401C83.5206 134.462 83.4859 135.782 82.5526 135.78C80.1464 135.717 77.5263 135.689 75.126 135.775C72.5813 135.844 69.9595 136.02 67.3745 136.283C68.5857 136.597 69.7932 136.94 70.9517 137.239C75.2248 138.365 79.6157 139.169 84.06 138.941C87.3613 138.792 90.6215 138.1 93.7446 136.974C94.4464 136.719 95.1839 136.418 95.9015 136.114C88.9948 129.936 79.5226 131.237 71.1189 133.878C70.5186 134.065 69.9217 134.261 69.3248 134.458ZM132.025 148.747C132.698 149.057 133.428 149.357 134.145 149.64C133.621 140.329 126.052 134.619 118.293 130.63C117.832 130.391 117.368 130.158 116.902 129.927C117.896 130.869 118.892 131.864 119.892 132.919C121.628 134.756 123.281 136.662 124.886 138.604C125.116 138.882 125.075 139.298 124.793 139.532C124.514 139.764 124.103 139.73 123.873 139.457C122.245 137.57 120.573 135.723 118.829 133.952C117.19 132.288 115.463 130.683 113.647 129.182C114.394 130.434 115.11 131.733 115.821 132.94C118.033 136.754 120.556 140.417 123.839 143.371C126.265 145.581 129.041 147.369 132.025 148.747Z" fill="#6A7F30" fill-opacity="0.5"/>
<path d="M85.1604 134.493C85.0649 134.539 84.981 134.602 84.9099 134.68C84.8376 134.759 84.784 134.85 84.7468 134.95C84.7119 135.05 84.6958 135.152 84.7007 135.259C84.7045 135.365 84.7295 135.465 84.7745 135.56C84.8182 135.656 84.8798 135.739 84.959 135.809C85.037 135.88 85.1258 135.934 85.2253 135.967C85.3248 136.003 85.428 136.016 85.5337 136.011C85.6394 136.005 85.7406 135.979 85.8361 135.933C85.9339 135.886 86.0166 135.825 86.0877 135.744C86.16 135.665 86.2136 135.575 86.2497 135.476C86.2858 135.374 86.3019 135.272 86.297 135.165C86.2932 135.06 86.2682 134.959 86.2232 134.864C86.1783 134.769 86.1167 134.686 86.0387 134.615C85.9606 134.544 85.8719 134.491 85.7724 134.457C85.6729 134.422 85.5697 134.408 85.464 134.414C85.3571 134.42 85.2571 134.445 85.1604 134.493Z" fill="#6A7F30" fill-opacity="0.5"/>
<path d="M92.5828 95.1132C92.4873 95.1595 92.4034 95.2223 92.3311 95.3014C92.2589 95.3805 92.2064 95.4701 92.1692 95.5701C92.1343 95.6701 92.117 95.7735 92.1231 95.8791C92.1269 95.9848 92.1519 96.0856 92.1957 96.1816C92.2406 96.2764 92.3022 96.3593 92.3802 96.4305C92.4594 96.5004 92.5482 96.5538 92.6465 96.5884C92.7472 96.623 92.8492 96.6376 92.9561 96.6311C93.0618 96.6257 93.163 96.5993 93.2585 96.5529C93.3551 96.5076 93.439 96.4449 93.5101 96.3646C93.5824 96.2855 93.6349 96.1959 93.6721 96.0959C93.7082 95.9947 93.7243 95.8925 93.7194 95.7857C93.7144 95.6812 93.6894 95.5804 93.6456 95.4844C93.6006 95.3896 93.5391 95.3067 93.4611 95.2356C93.383 95.1644 93.2931 95.1122 93.1948 95.0776C93.0941 95.043 92.9921 95.0284 92.8852 95.0349C92.7795 95.0403 92.6783 95.0668 92.5828 95.1132Z" fill="#6A7F30" fill-opacity="0.5"/>
<path d="M95.1078 95.1406C95.5462 95.0779 95.8573 94.6744 95.8035 94.2369C95.7474 93.7994 95.3485 93.4943 94.91 93.5546C94.4728 93.6161 94.1618 94.0195 94.2156 94.4571C94.2705 94.8935 94.6694 95.2009 95.1078 95.1406Z" fill="#6A7F30" fill-opacity="0.5"/>
<path d="M87.5331 135.308C87.5869 135.745 87.9858 136.05 88.4243 135.99C88.8627 135.93 89.1749 135.525 89.1187 135.088C89.0649 134.65 88.6649 134.344 88.2276 134.405C87.7892 134.466 87.4782 134.869 87.5331 135.308Z" fill="#6A7F30" fill-opacity="0.5"/>
<path d="M126.609 140.963C126.554 140.524 126.155 140.219 125.717 140.28C125.278 140.34 124.969 140.745 125.022 141.182C125.076 141.62 125.476 141.926 125.915 141.863C126.353 141.803 126.664 141.399 126.609 140.963Z" fill="#6A7F30" fill-opacity="0.5"/>
<path d="M127.94 142.697C127.886 142.259 127.487 141.954 127.049 142.015C126.61 142.075 126.298 142.48 126.354 142.917C126.408 143.355 126.807 143.66 127.245 143.599C127.684 143.539 127.995 143.136 127.94 142.697Z" fill="#6A7F30" fill-opacity="0.5"/>
<path d="M132.806 106.769C132.702 106.782 132.603 106.818 132.511 106.87C132.419 106.925 132.341 106.993 132.274 107.078C132.21 107.163 132.163 107.256 132.134 107.36C132.107 107.462 132.099 107.566 132.112 107.671C132.125 107.777 132.158 107.874 132.21 107.966C132.263 108.058 132.331 108.135 132.414 108.199C132.499 108.263 132.591 108.308 132.693 108.334C132.796 108.362 132.899 108.368 133.005 108.353C133.109 108.339 133.208 108.305 133.301 108.252C133.393 108.197 133.471 108.129 133.537 108.044C133.601 107.959 133.648 107.866 133.676 107.763C133.705 107.66 133.712 107.555 133.7 107.451C133.685 107.346 133.653 107.248 133.601 107.156C133.548 107.064 133.481 106.987 133.397 106.922C133.313 106.859 133.22 106.814 133.117 106.787C133.015 106.76 132.912 106.754 132.806 106.769Z" fill="#6A7F30" fill-opacity="0.5"/>
<path d="M135.1 106.815C134.994 106.83 134.896 106.864 134.803 106.918C134.712 106.971 134.633 107.041 134.568 107.125C134.504 107.21 134.456 107.304 134.428 107.406C134.4 107.509 134.392 107.612 134.405 107.717C134.419 107.823 134.451 107.921 134.504 108.013C134.555 108.104 134.623 108.182 134.707 108.245C134.791 108.31 134.884 108.355 134.986 108.382C135.087 108.408 135.192 108.416 135.296 108.4C135.402 108.385 135.501 108.351 135.593 108.297C135.685 108.245 135.764 108.175 135.829 108.09C135.894 108.006 135.942 107.912 135.969 107.81C135.997 107.707 136.004 107.603 135.992 107.498C135.979 107.393 135.947 107.294 135.894 107.203C135.842 107.111 135.774 107.034 135.689 106.97C135.606 106.906 135.514 106.86 135.411 106.833C135.309 106.807 135.204 106.801 135.1 106.815Z" fill="#6A7F30" fill-opacity="0.5"/>
<path d="M18.1927 45.1071C25.8027 46.8633 31.5201 54.9663 35.345 61.2932C38.2293 66.1281 40.65 71.2161 42.8717 76.3862C43.0824 76.8674 43.2953 77.3697 43.5093 77.8778C40.6619 65.2886 34.9645 53.187 26.2984 42.574C22.139 37.4819 17.5095 32.9984 12.5214 29.1266C11.8811 28.6293 11.867 27.6656 12.5031 27.1427C12.963 26.7653 13.6218 26.7482 14.0859 27.1092C19.2804 31.15 24.0202 35.7771 28.2562 40.965C31.2503 44.6312 33.9187 48.4919 36.2628 52.5226C35.1978 48.1375 34.4364 43.68 34.2415 39.1486C34.1002 33.9746 34.6907 28.1985 38.3831 24.1836C38.7966 23.7408 39.2497 23.3352 39.7271 22.9659C40.0396 22.6658 40.573 22.7551 40.7647 23.1366C45.134 31.5486 43.1685 43.1317 42.8734 52.4009C42.6241 57.6759 42.6585 62.9867 43.4182 68.1979C43.8959 69.5907 44.3394 70.9967 44.7464 72.4181C46.2502 77.648 47.2602 82.9703 47.7872 88.3484C48.6248 83.8855 49.7636 79.4806 51.4492 75.2402C53.445 70.4342 56.3527 65.3748 61.3466 63.2065C61.9039 62.9694 62.4795 62.7838 63.0642 62.6404C63.4693 62.4946 63.9164 62.7935 63.9339 63.223C64.4373 72.7384 57.8988 82.5636 53.8251 90.9493C51.4057 95.7403 49.2374 100.686 47.7846 105.842C47.7562 106.14 47.7325 106.438 47.7006 106.738C46.9988 113.317 45.6009 119.735 43.5275 125.941C46.1141 122.194 48.9516 118.627 52.2132 115.433C55.9947 111.842 60.7072 108.392 66.1211 108.452C66.7221 108.464 67.3203 108.529 67.9087 108.638C68.3369 108.671 68.6171 109.13 68.4564 109.53C65.0072 118.47 55.0494 124.802 47.9165 130.825C43.801 134.194 39.8444 137.799 36.4367 141.882C33.0049 147.967 28.9065 153.597 24.195 158.727C28.0824 156.345 32.1261 154.231 36.4013 152.635C41.2999 150.893 46.9855 149.662 51.8651 151.94C52.4041 152.198 52.9192 152.504 53.4059 152.845C53.781 153.05 53.8468 153.587 53.5378 153.889C46.74 160.676 35.1216 162.4 26.1853 164.999C21.0371 166.411 15.9369 168.11 11.142 170.485C5.55827 174.636 -0.41288 178.103 -6.71372 180.858C-2.22762 180.274 2.28756 179.997 6.79906 180.287C11.9529 180.699 17.6071 181.904 21.0906 185.999C21.4741 186.457 21.815 186.95 22.117 187.464C22.3712 187.806 22.2118 188.326 21.8067 188.474C12.8621 191.914 1.63075 188.724 -7.52947 187.439C-12.7386 186.625 -18.0205 186.092 -23.3028 186.292C-32.4927 188.352 -41.8921 188.956 -51.3294 188.085C-56.193 187.636 -60.9628 186.804 -65.6168 185.597C-66.6265 185.336 -66.8983 184.031 -66.0837 183.362C-65.7633 183.099 -65.3387 183.005 -64.9428 183.109C-57.174 185.119 -49.1449 186.056 -41.1005 185.884C-40.2456 185.723 -39.3469 185.52 -38.3974 185.269C-32.5227 182.65 -27.1953 178.959 -22.1565 174.967C-14.8594 169.367 -6.15033 160.659 3.18614 159.452C3.54855 159.493 3.8052 159.821 3.75983 160.185C3.72141 161.385 3.47754 162.585 3.06753 163.719C-0.336731 172.758 -13.1835 178.372 -21.6592 181.616C-25.335 183.002 -29.068 184.203 -32.8272 185.319C-23.5001 184.237 -14.2658 181.663 -5.51029 177.548C-4.71676 177.008 -3.89211 176.397 -3.03628 175.711C1.28142 170.925 4.65338 165.393 7.63922 159.709C12.0378 151.639 16.4536 140.174 24.5281 135.247C24.8777 135.135 25.2482 135.327 25.3556 135.676C25.8134 136.779 26.0827 137.965 26.1711 139.16C26.6468 146.975 20.5244 154.951 15.5657 160.572C11.386 165.282 6.69968 169.514 1.91589 173.614C5.79911 171.316 9.55711 168.695 13.1536 165.742C17.1249 162.48 20.7369 158.941 23.9951 155.183C24.4951 154.374 24.9957 153.493 25.4946 152.529C27.4909 146.422 28.3145 140.026 28.7211 133.652C29.4434 124.536 28.7892 112.338 34.1749 104.559C34.4518 104.313 34.8695 104.334 35.1126 104.606C35.985 105.416 36.7187 106.381 37.2909 107.428C41.768 115.87 37.3167 129.149 34.036 137.612C32.5731 141.33 30.9279 144.966 29.1996 148.565C34.9019 140.561 39.1515 131.781 41.9005 122.624C42.0148 121.747 42.1027 120.812 42.1593 119.815C41.4845 113.462 39.6138 107.332 37.3694 101.39C34.2879 92.8362 28.6779 82.056 30.4275 72.7975C30.5795 72.462 30.9729 72.3092 31.3062 72.4562C32.4406 72.8329 33.5099 73.4049 34.4653 74.1185C42.042 79.9263 43.4088 93.7834 43.873 102.795C44.0536 106.678 44.0415 110.561 43.9379 114.445C45.8046 105.091 46.1543 95.4812 44.9472 86.0231C44.688 85.1713 44.3833 84.2763 44.0204 83.3371C40.7917 77.861 36.5581 73.0757 32.0575 68.6173C25.7181 62.1337 16.1422 54.6727 13.9436 45.5684C13.9467 45.2021 14.2451 44.902 14.6114 44.8997C15.8064 44.7735 17.0244 44.8527 18.1927 45.1071ZM40.9681 49.0847C41.2628 42.6167 42.0232 36.2031 41.1572 29.8293C40.9103 28.0852 40.5022 26.3761 39.9034 24.7363C34.1274 31.1933 36.4767 44.7941 39.0294 54.7814C38.1705 47.4389 37.8614 39.5037 38.5349 32.8066C38.581 32.3555 38.9818 32.0231 39.4311 32.0614C39.8816 32.1008 40.2081 32.4967 40.1632 32.9466C39.4755 39.7928 39.8273 47.9509 40.7487 55.4009C40.769 53.2947 40.8527 51.188 40.9681 49.0847ZM43.9992 156.364C37.2667 157.834 29.5737 160.707 22.7209 163.902C24.7373 163.268 26.7721 162.693 28.8136 162.148C35.0751 160.419 41.4149 159.152 47.2572 156.344C48.8534 155.567 50.3698 154.647 51.7667 153.565C43.9662 150.055 31.6416 156.526 22.8246 162.068C29.5933 158.965 37.0846 156.205 43.6712 154.766C44.1158 154.669 44.5466 154.949 44.6368 155.39C44.7269 155.831 44.4414 156.267 43.9992 156.364ZM12.1506 186.829C5.44863 185.415 -2.69907 184.891 -10.2183 185.009C-8.13187 185.255 -6.05185 185.564 -3.97795 185.902C2.40248 186.887 8.66398 188.327 15.1095 188.151C16.8745 188.092 18.628 187.87 20.3362 187.45C14.7125 181.025 0.89067 181.903 -9.37076 183.37C-1.96583 183.3 5.95394 183.844 12.5118 185.228C12.9524 185.322 13.2293 185.755 13.1292 186.197C13.0292 186.639 12.5912 186.923 12.1506 186.829ZM-5.61076 167.039C-5.248 166.764 -4.73202 166.831 -4.46505 167.188C-4.19456 167.545 -4.26704 168.059 -4.62981 168.335C-9.7796 172.265 -14.6603 175.62 -19.2508 178.386C-10.0713 174.531 0.486246 168.769 2.20717 161.085C0.516019 161.569 -1.12162 162.248 -2.69244 163.075C-8.41234 166.129 -13.2102 170.506 -18.3246 174.545C-20.8341 176.56 -23.3879 178.522 -26.0472 180.335C-20.3706 177.411 -13.6321 173.162 -5.61076 167.039ZM20.6811 145.396C21.0773 145.609 21.221 146.106 21.0028 146.503C17.8819 152.194 14.7712 157.239 11.6859 161.64C18.5348 154.373 25.8788 144.804 24.3019 137.128C22.9456 138.262 21.7231 139.549 20.6194 140.944C16.6229 146.058 14.02 151.994 10.983 157.753C9.50875 160.609 7.97018 163.434 6.27273 166.168C10.2822 161.188 14.7223 154.571 19.5712 145.733C19.7895 145.334 20.2873 145.184 20.6811 145.396ZM34.8144 115.331C35.2649 115.361 35.5997 115.751 35.563 116.202C35.0362 122.62 34.2585 128.462 33.2393 133.704C36.5362 124.315 39.3348 112.653 34.7396 106.354C33.9618 107.938 33.3676 109.606 32.9279 111.323C31.3611 117.596 31.407 124.043 30.9856 130.505C30.8057 133.699 30.5542 136.891 30.1186 140.063C31.7537 133.906 33.1106 126.089 33.9309 116.091C33.9688 115.641 34.3638 115.301 34.8144 115.331ZM59.7615 114.376C60.1289 114.107 60.6413 114.182 60.9036 114.545C61.1681 114.907 61.0851 115.42 60.7177 115.689C55.1438 119.786 49.2623 125.548 44.284 131.256C45.8738 129.853 47.5067 128.496 49.1569 127.164C54.1934 123.028 59.4908 119.276 63.6995 114.334C64.844 112.974 65.8602 111.517 66.6976 109.965C58.0967 109.989 49.4416 120.911 43.6282 129.552C48.5656 123.962 54.307 118.384 59.7615 114.376ZM34.9407 83.3453C34.7893 82.9212 35.0117 82.4502 35.4369 82.2938C35.8632 82.1361 36.331 82.3515 36.4823 82.7755C38.6356 88.8055 40.3205 94.4158 41.5372 99.5829C40.7069 89.7233 38.4871 78.0118 31.6835 74.1937C31.6192 75.948 31.7592 77.7033 32.0602 79.4377C33.199 85.7653 35.8882 91.584 38.1565 97.6109C39.3017 100.577 40.382 103.571 41.2846 106.624C40.2555 100.375 38.2933 92.7369 34.9407 83.3453ZM59.06 70.8683C59.4514 71.0877 59.5845 71.5857 59.3592 71.9805C55.9257 77.9812 52.8927 85.6148 50.6698 92.8288C51.5526 90.9049 52.4928 89.0054 53.461 87.1221C56.3846 81.3065 59.7064 75.7338 61.5403 69.5271C62.0327 67.8253 62.3656 66.0892 62.4968 64.338C54.6137 67.8922 51.1541 81.3408 49.3658 91.5551C51.6029 84.4642 54.5824 77.0541 57.9432 71.1841C58.1684 70.7894 58.6686 70.6465 59.06 70.8683ZM18.1701 50.9125C21.8127 56.1758 26.6715 60.342 31.2278 64.8705C33.4969 67.0879 35.7164 69.3549 37.7997 71.7483C34.2896 66.5111 29.3512 60.399 22.4174 53.27C22.1032 52.9479 22.1158 52.4301 22.4414 52.1123C22.7681 51.7956 23.2858 51.7982 23.5977 52.1202C28.0515 56.6975 31.9011 61.0861 35.1408 65.2684C30.3292 56.6784 23.4819 46.9813 15.67 46.3182C16.3324 47.9317 17.1811 49.4642 18.1701 50.9125Z" fill="#6A7F30" fill-opacity="0.5"/>
</svg>
