<svg width="260" height="149" viewBox="0 0 260 149" fill="none" xmlns="http://www.w3.org/2000/svg">
<path fill-rule="evenodd" clip-rule="evenodd" d="M186.433 48.4377C186.488 48.2948 186.604 48.1836 186.756 48.1116C187.257 47.8795 187.775 47.693 188.291 47.5052C193.752 44.4197 198.67 40.4004 204.197 37.4447C213.045 32.7228 223.847 30.2427 233.832 30.2709C237.184 30.2731 240.5 30.1626 243.862 30.4377C244.395 30.4695 245.334 30.4274 246.17 30.4661C246.857 30.5007 247.472 30.6328 247.868 30.86C248.115 31.0078 248.15 31.1978 248.193 31.3346C248.226 31.5251 248.179 31.6902 248.031 31.8602C247.979 31.9273 247.879 32.0094 247.72 32.0591C247.627 32.088 247.461 32.1138 247.37 32.1421C246.794 32.2981 246.218 32.4542 245.641 32.6083C244.23 32.975 242.825 33.4411 241.472 33.9883C237.555 35.6162 233.508 37.3072 229.869 39.4994C222.139 44.1212 213.167 46.8542 204.187 47.5625C200.061 47.878 196.077 47.3716 192.142 47.9032L192.119 47.9102C187.939 49.8946 183.649 51.6877 179.244 53.1926C175.106 54.5873 170.88 55.7089 166.551 56.4128C164.982 56.6785 163.417 56.8678 161.837 57.0133C164.332 57.5597 166.781 58.1935 169.155 58.9037C172.248 59.839 175.554 60.6552 178.448 62.1541C183.19 64.601 187.079 67.9156 191.239 71.1433C192.996 72.5214 194.521 74.1973 196.224 75.6431C198.098 77.2342 200.147 78.671 202.028 80.2861C203.188 81.2747 204.378 82.2032 205.555 83.1621C205.919 83.45 206.253 83.7208 206.634 83.9771C206.791 84.078 207.121 84.1735 207.277 84.2769C207.435 84.3778 207.546 84.4932 207.597 84.5768C207.707 84.7675 207.711 84.9409 207.639 85.1136C207.584 85.2565 207.49 85.4361 207.223 85.5439C206.805 85.7255 206.225 85.7063 205.585 85.5818C204.865 85.4319 204.046 85.1381 203.557 85.0152C200.632 84.3782 197.666 83.9285 194.774 83.1573C186.993 81.0612 179.466 78.1851 173.368 72.6822C169.713 69.394 166.973 65.5958 163.745 62.5494C160.836 59.8048 157.523 57.688 152.744 57.205C146.093 56.8841 139.814 55.5943 133.314 53.923C121.647 50.9161 109.268 46.6018 92.5784 44.4913C86.7193 43.7458 80.92 43.5092 75.2169 43.7418C75.4042 43.7826 75.5915 43.8234 75.7794 43.8661C81.3502 45.2011 89.015 47.8837 93.5555 51.4449C98.9075 55.6795 104.283 63.1092 109.174 68.1134C111.162 70.1457 113.367 71.7588 115.708 73.3296C116.215 73.6722 117.038 74.0641 117.756 74.5172C118.316 74.8674 118.791 75.2688 119.071 75.6826C119.254 75.95 119.221 76.1613 119.187 76.2955C119.13 76.5143 118.985 76.6856 118.682 76.756C118.59 76.785 118.44 76.781 118.275 76.7332C118.079 76.669 117.728 76.5026 117.539 76.4624C116.991 76.3071 116.466 76.1468 115.924 76.0161C114.316 75.5939 112.653 75.3881 111.027 75.0709C110.389 74.9439 109.742 74.7973 109.126 74.6634C109.033 74.7677 108.874 74.8174 108.746 74.7336C108.508 74.6073 108.274 74.5038 108.036 74.3793C105.609 73.7368 103.292 72.9603 100.969 72.0091C100.875 72.1133 100.716 72.1631 100.589 72.0793C99.5046 71.5662 98.434 71.0246 97.4179 70.4172C97.0365 70.2362 96.6254 70.0381 96.2371 69.8349C88.6709 66.1189 83.4286 60.549 77.7157 54.5257C75.738 52.4415 73.8399 50.1314 71.6549 48.2602C69.5438 46.4694 67.1897 45.1016 64.228 44.8272C63.9723 44.8078 63.6939 44.7935 63.4433 44.7969C50.0995 46.8203 37.181 51.2394 24.7204 57.3681C35.599 54.8154 49.1982 57.9196 58.8172 61.9694C59.0189 62.0564 59.2226 62.1428 59.4243 62.2299C63.2825 63.8513 66.7229 65.979 70.0447 68.5192C70.2679 68.6747 70.6877 68.8943 71.0443 69.1582C71.3642 69.3828 71.6626 69.6161 71.8166 69.8683C71.9631 70.0964 72.0348 70.3256 72.0085 70.5591C71.9821 70.7927 71.8855 71.0482 71.6326 71.2775C68.4057 74.0654 62.6155 74.9016 56.2957 74.5256C46.9765 73.9884 36.5244 70.8753 31.7606 68.0335C29.5506 66.7241 27.5295 64.5013 25.3495 62.73C23.5714 61.2834 21.6891 60.1455 19.4535 60.1938C8.84835 66.4927 -6.71535 79.0013 -11.9307 88.1449C-12.1878 88.6008 -12.764 88.7568 -13.2205 88.4979C-13.5848 88.2872 -13.7595 87.8913 -13.6853 87.4926C-13.7442 87.4603 -13.7656 87.3919 -13.8022 87.3527C-13.8492 87.4425 -13.9031 87.5101 -13.9501 87.5999C-14.051 87.7573 -14.2415 87.7905 -14.3896 87.7131C-14.547 87.6122 -14.5821 87.4222 -14.5034 87.2718C-13.8807 86.2265 -13.1544 85.2726 -12.4041 84.3112C-12.3349 84.2145 -12.1981 84.1716 -12.0862 84.2117C-11.5983 83.5333 -11.0883 82.848 -10.555 82.2306C-10.4466 82.0972 -10.2269 82.0792 -10.1157 82.1946C-10.1088 82.2167 -10.0866 82.2098 -10.0797 82.232C-6.88582 78.3788 -2.57633 74.2515 2.02262 70.407C2.04818 70.2488 2.14782 70.0939 2.29417 69.9973C3.03432 69.4896 3.75229 68.9889 4.4342 68.4507C4.61102 68.2959 4.81697 68.1564 4.9932 67.9997C5.98948 67.1886 6.94854 66.3364 7.8646 65.4246C8.11018 64.2965 8.06283 63.1078 7.94951 61.9418C7.81372 60.6327 7.63356 59.3374 7.65595 58.0539C7.85503 47.9009 9.32445 39.6538 15.0434 31.004C15.7096 30.0202 19.9682 24.5309 22.2629 22.8364C22.768 22.453 23.2253 22.2348 23.5424 22.2106C23.8299 22.1694 24.0557 22.2489 24.2498 22.389C24.5697 22.6136 24.8184 23.0127 24.9966 23.582C25.1968 24.2215 25.2795 25.1211 25.3056 26.1642C25.3424 29.958 24.2752 35.6519 23.9725 36.9217C21.7375 46.1594 17.9929 55.4433 11.9792 62.8337L12.0166 62.7977C13.5159 61.752 15.0448 60.7235 16.6167 59.7545C17.8909 58.9558 19.196 58.1719 20.5156 57.4341C20.9414 57.1994 21.3696 56.9659 21.8182 56.726C22.0329 56.6081 22.2533 56.5147 22.4884 56.3904C22.7475 56.2586 23.0071 56.1286 23.2662 55.9968C24.0885 55.5892 24.9107 55.1817 25.7177 54.8032C27.6135 53.9094 29.5385 53.0309 31.4798 52.198C32.4292 51.8013 33.3805 51.4041 34.3091 51.012C34.5594 50.8586 34.8115 50.7045 35.0877 50.543C35.0738 50.4986 35.0885 50.4677 35.0968 50.4164C37.4279 32.4604 46.7571 15.7701 63.2425 7.40547C64.1939 6.93108 70.2844 3.62433 73.2601 2.34183C74.1424 1.96417 74.7876 1.78859 75.0655 1.80106C75.4211 1.81557 75.6221 1.97792 75.7377 2.19139C75.8411 2.35992 75.9054 2.56509 75.8398 2.83526C75.7995 3.02441 75.7029 3.27992 75.5638 3.54874C75.4229 3.81813 75.2357 4.10198 75.1709 4.29682C74.7098 5.61824 74.1811 6.88575 73.8782 8.23276C72.9116 12.4908 71.6829 16.08 69.5233 19.8854C61.619 33.7754 40.2985 48.7374 40.2985 48.7374C53.8512 43.9453 67.884 41.3287 82.3863 41.7229C82.4085 41.716 82.4085 41.716 82.4307 41.709C86.5152 40.4549 89.9927 37.6637 93.1526 34.4218C96.3683 31.1118 99.2664 27.3512 102.039 24.2284C106.925 18.7438 112.808 14.3735 119.541 11.44C123.285 9.81758 127.138 8.71109 131.147 7.85803C132.345 7.60686 133.526 7.38725 134.73 7.16069C135.223 7.05705 135.723 6.97558 136.221 6.8947C136.245 6.88718 136.579 6.75855 136.715 6.71573C136.905 6.68064 137.034 6.69097 137.146 6.73101C137.311 6.77877 137.445 6.8872 137.51 7.01704C137.599 7.13936 137.656 7.32235 137.606 7.56339C137.525 7.86453 137.286 8.21358 136.917 8.55413C136.327 9.06579 135.365 9.59207 134.997 9.93263C133.3 11.4641 131.616 13.2678 130.209 15.0864C127.619 18.4765 125.5 21.6928 122.116 24.3798C114.337 30.5205 105.235 32.9191 96.2459 36.6338C92.7022 38.0921 89.4868 40.1255 86.0969 41.9131C88.3873 42.0465 90.6864 42.2787 92.9999 42.5572C105.078 44.0836 114.919 46.761 123.856 49.2728C123.924 49.2514 124.017 49.2225 124.092 49.2233C129.447 49.0002 133.895 46.7555 137.988 43.7715C142.165 40.7371 145.953 36.9475 149.87 33.7184C155.416 29.1532 163.47 26.206 170.567 25.7136C172.723 25.5646 176.932 25.2721 179.087 25.8496C179.261 25.846 179.404 25.8254 179.58 25.8213C179.753 25.8177 179.893 25.9484 179.921 26.1143C179.925 26.2895 179.794 26.4299 179.628 26.4574C179.647 26.6017 179.592 26.7428 179.491 26.9003C179.437 26.9679 179.344 27.0721 179.17 27.151C179.018 27.2229 178.691 27.3009 178.546 27.3968C178.096 27.6372 177.692 27.9404 177.27 28.196C176.019 28.9896 174.93 29.905 173.803 30.8582C170.401 33.7274 167.74 37.2878 163.812 39.5201C156.629 43.5706 148.705 43.8977 140.881 45.7458C136.317 46.8233 132.2 49.0882 127.717 50.3412C129.827 50.9331 131.909 51.5093 133.945 52.0227C151.302 56.5058 167.062 58.1319 193.171 45.2776L186.433 48.4377ZM9.68968 62.9497L9.66056 62.9344C9.651 62.9882 9.65794 63.0103 9.65023 63.0635L9.68968 62.9497ZM17.6095 29.7746C16.8591 30.7361 16.2799 31.5181 16.0484 31.8158C10.483 40.243 9.07845 48.2953 8.87092 58.1748C8.86337 58.5527 8.88677 58.9451 8.90832 59.3382C8.96627 58.7193 9.04455 58.0941 9.13161 57.4905C9.38954 55.3579 9.60069 53.238 10.039 51.1241C11.2871 45.0488 12.882 38.6418 15.6325 33.048C16.197 31.8951 16.9412 30.8362 17.6095 29.7746ZM20.8501 27.1083C19.7464 28.9312 18.8051 30.8778 17.962 32.8201C15.9773 37.3461 14.5663 42.0193 13.1508 46.7689C11.802 51.3231 10.2185 56.2492 9.78448 61.0934C10.0507 59.7072 10.5126 58.3104 10.8155 56.9634C11.3478 54.6699 11.806 52.3732 12.494 50.104C13.4014 47.1674 14.6227 44.2807 15.7021 41.4141C16.9787 37.9845 18.3604 34.5727 19.5788 31.1126C19.9937 29.8056 20.3283 28.398 20.8501 27.1083ZM11.0674 61.9177C16.8581 54.6966 20.4617 45.682 22.6488 36.6866C22.9408 35.4668 23.9848 29.9324 23.9529 26.2385C23.9543 25.3614 23.8848 24.5815 23.7135 24.0344C23.699 23.9882 23.6851 23.9438 23.6707 23.8976C23.6967 24.616 23.5474 25.3386 23.5272 26.0714C23.5037 26.8784 23.6169 27.7197 23.5497 28.5424C23.3351 30.8136 22.5156 33.0712 21.9556 35.276C21.511 36.9677 21.1999 38.6907 20.6655 40.3354C19.7621 43.1226 18.5209 45.7902 17.362 48.4808C16.0716 51.4642 14.8393 54.4781 13.442 57.4442C12.6964 58.9785 11.849 60.4208 11.0674 61.9177ZM23.0365 24.2706C22.9375 24.4274 22.8435 24.607 22.7648 24.7575C22.4303 26.088 22.2634 27.4675 21.9296 28.7999C21.5951 30.1304 21.0974 31.4125 20.7116 32.7348C20.2846 34.1714 19.9708 35.6456 19.5164 37.0664C18.4929 40.1895 17.1485 43.2405 16.013 46.3236C14.3129 50.9614 12.712 55.6696 11.1845 60.3792C11.7553 59.3238 12.3482 58.2615 12.8588 57.1762C14.2391 54.2398 15.4713 51.2259 16.7636 48.2419C17.9055 45.581 19.1542 42.9374 20.0335 40.1578C20.5698 38.5125 20.8808 36.7895 21.3102 35.1269C21.8847 32.9683 22.6871 30.7404 22.887 28.5002C22.9612 27.6997 22.8555 26.8824 22.8765 26.0742C22.8883 25.4698 22.9975 24.8592 23.0365 24.2706ZM21.6937 26.7691C21.0419 28.201 20.6804 29.8403 20.1697 31.3275C18.9537 34.7889 17.5702 38.2012 16.293 41.629C15.2154 44.495 13.9871 47.3595 13.1038 50.2886C12.4292 52.5292 11.9653 54.8013 11.4558 57.0897C11.2995 57.7901 11.0914 58.4803 10.913 59.1876C12.3362 54.7867 13.8416 50.4087 15.4134 46.0871C16.5261 43.0091 17.8558 39.9891 18.8718 36.8419C19.3267 35.423 19.6469 33.9691 20.0727 32.5349C20.4673 31.2343 20.965 29.9522 21.2748 28.6273C21.4378 28.0263 21.5623 27.3866 21.6937 26.7691ZM19.902 27.4314C19.3672 28.1996 18.8393 28.9899 18.3633 29.7904C17.6328 30.9708 16.8119 32.1025 16.201 33.347C13.4822 38.8801 11.8951 45.234 10.6547 51.2561C10.3655 52.7246 10.1713 54.1857 9.97964 55.6481C10.6841 52.5498 11.6234 49.4754 12.4916 46.5755C13.9052 41.8264 15.3555 37.1166 17.3327 32.5666C18.1115 30.821 18.9435 29.0831 19.902 27.4314ZM68.7663 69.9463C65.6522 68.8672 62.1902 68.3496 59.1342 67.3782C47.5911 63.7298 35.6471 60.9598 23.5468 60.0897C33.166 62.8628 43.1714 64.7885 52.906 67.0485C58.2737 68.299 63.3066 70.0033 68.7663 69.9463ZM59.8083 63.9362C59.5167 63.8022 59.1941 63.6535 58.8804 63.5265C58.6768 63.44 58.475 63.353 58.2732 63.266C48.5353 59.154 34.5958 56.0061 23.7935 59.0363C27.8339 58.8472 31.8711 59.3613 35.9278 59.6198C43.7234 60.1589 52.1981 61.1106 59.8083 63.9362ZM70.4141 70.5813C70.3559 70.5508 70.3243 70.5343 70.2661 70.5038C64.174 70.9332 58.6751 69.0237 52.7676 67.6439C44.0549 65.614 35.1346 63.8743 26.473 61.528C36.7477 65.5977 47.6005 69.5109 58.5747 70.3824C62.5395 70.7426 66.4774 71.2635 70.4141 70.5813ZM68.5821 69.2023C59.2971 62.6208 46.9076 60.9888 35.8862 60.2843C32.5681 60.0707 29.2686 59.6767 25.9559 59.636C37.3115 60.6885 48.4961 63.347 59.3428 66.7609C62.285 67.6928 65.5741 68.2158 68.5821 69.2023ZM65.2854 72.8888C62.9729 73.087 60.508 72.8824 58.4631 72.8202C52.222 72.6956 40.1026 69.6051 34.3178 66.7825C32.2175 65.7392 30.1756 64.6492 28.1025 63.6217C29.5062 64.9095 30.8876 66.2042 32.3584 67.0711C37.0198 69.8191 47.2456 72.8509 56.3387 73.3858C59.567 73.5524 62.6559 73.4359 65.2854 72.8888ZM68.7841 71.4426C65.3816 71.7567 61.948 71.3296 58.5109 71.0538C48.1461 70.2168 37.875 66.7223 28.1246 62.8883C30.2862 63.9651 32.3951 65.1072 34.5783 66.1753C40.2802 68.9731 52.2655 72.0305 58.4534 72.1475C60.2402 72.1889 62.3204 72.3638 64.3686 72.2747C65.9314 72.2361 67.461 72.0069 68.7841 71.4426ZM36.5217 49.2174L36.4995 49.2244L36.4993 49.3016L36.5217 49.2174ZM60.9884 10.1892C59.7219 10.9347 58.5219 11.7365 57.3431 12.6068C51.0657 18.7525 45.8045 28.7871 42.1501 35.5649C39.862 39.8347 37.3756 43.3934 36.8416 48.2426C39.7226 38.3522 46.5158 30.4174 52.1622 22.0156C54.963 17.7822 57.4694 13.5678 60.9884 10.1892ZM68.8077 6.01257C66.4612 7.22396 64.2585 8.41471 63.7398 8.67654L63.7176 8.68348C58.9419 12.2809 56.0511 17.3421 52.7002 22.3729C47.5563 30.0654 41.4314 37.3404 38.2396 46.0759C40.2084 42.3809 42.2159 38.6474 44.5413 35.2162C48.8533 28.8598 54.1634 23.2158 59.0936 17.3173C62.6578 13.0458 65.1027 9.27684 68.8077 6.01257ZM72.5469 7.97364C68.3565 14.7182 62.3106 20.1643 56.8995 25.9657C50.3421 32.9743 44.5763 40.4373 38.9184 48.1669C39.1706 48.0128 39.4158 47.8366 39.6832 47.6535C40.153 46.7555 40.7957 45.8521 41.5434 44.9666C43.4795 42.6842 46.0238 40.5098 47.4437 38.8152C52.0416 33.2947 56.631 27.9027 61.72 22.8292C65.3457 19.2407 69.0396 16.1808 71.5342 11.8443C71.9026 10.629 72.2339 9.37253 72.5291 8.07868C72.5386 8.02494 72.5317 8.00276 72.5469 7.97364ZM73.5554 4.80249C62.0997 17.1759 50.0589 28.9573 41.3287 43.4833C40.5729 44.7448 39.6917 45.9237 38.8701 47.1307C44.3954 39.6192 50.0519 32.365 56.4325 25.5112C62.4827 19.0348 69.2783 13.0273 73.4358 5.14027C73.4759 5.02829 73.5159 4.91631 73.5554 4.80249ZM54.1033 15.1978C46.1813 22.1586 40.8326 31.5956 38.0281 41.8862C39.035 39.6694 40.3259 37.5626 41.5747 35.2437C44.7142 29.4532 48.9892 21.3061 54.1033 15.1978ZM73.8188 3.56931C73.4224 3.74211 72.9599 3.93759 72.4342 4.17724C72.1751 4.30908 71.9085 4.41689 71.6494 4.54872C66.466 8.19866 63.8364 12.5774 59.5614 17.6965C54.6483 23.5653 49.3597 29.2005 45.0427 35.5342C42.9553 38.6169 41.1452 41.9374 39.3574 45.2511C39.8383 44.5506 40.3186 43.8482 40.761 43.109C50.019 27.7927 62.9462 15.4843 74.9741 2.30659L73.8188 3.56931ZM70.6819 14.3151C68.2732 17.6485 65.1985 20.2873 62.1408 23.2982C57.0443 28.3477 52.4789 33.7322 47.8962 39.2236C46.4769 40.92 43.932 43.0926 41.9965 45.3768C41.6496 45.7858 41.3249 46.1878 41.0312 46.6044C44.582 43.4899 47.7632 39.9918 51.1353 36.7079C57.8804 30.2149 64.5912 23.8585 69.9149 16.1828C70.1976 15.5687 70.4505 14.9375 70.6819 14.3151ZM68.069 19.7906C63.1697 26.1056 57.4023 31.566 51.6314 37.1777C49.2198 39.5358 46.8878 41.9929 44.454 44.358C53.7459 37.6178 62.4293 29.4912 68.069 19.7906ZM111.993 73.4414C107.54 70.4779 104.131 66.1381 100.132 62.6328C92.7401 56.1082 84.3056 50.811 75.1074 47.2303C73.3458 46.5558 71.5663 45.5846 69.7459 44.8779C69.6408 44.8601 69.551 44.8131 69.4447 44.7976C69.7381 44.9311 70.0075 45.072 70.2991 45.206C72.4387 46.2127 74.5097 47.3179 76.6042 48.4137C84.8732 52.7866 92.3896 57.945 99.6269 63.891C103.525 67.0789 107.377 71.156 111.993 73.4414ZM95.8493 55.2588C94.8338 54.2514 93.7947 53.3244 92.7897 52.5126C88.3826 49.0599 80.9411 46.4555 75.5083 45.1524C74.1556 44.8249 72.7567 44.5119 71.3033 44.2646C73.7016 44.8919 76.0472 45.759 78.3446 46.5437C84.3224 48.6281 90.5288 51.4425 95.8493 55.2588ZM101.56 70.9473C99.5962 69.784 97.6786 68.5334 95.8383 67.2058C91.2322 63.9147 87.0642 59.7864 82.8221 56.0568C80.1689 53.7334 77.4997 51.5146 74.6296 49.458C75.8903 50.691 77.1528 51.9235 78.4896 53.082C81.7388 55.8702 85.2101 58.4144 88.3662 61.3069C90.5041 63.2679 92.282 65.5893 94.451 67.5649C95.2129 68.0022 95.968 68.4174 96.7914 68.8111C98.3845 69.589 99.9871 70.3132 101.56 70.9473ZM108.073 73.1401C107.288 72.7851 106.516 72.4015 105.83 71.965C103.731 70.6939 101.783 69.0996 99.7858 67.6729C93.8147 63.4575 88.1607 58.8933 82.4921 54.2828C80.2514 52.4798 77.9635 50.8437 75.5837 49.3095C78.2501 51.2797 80.7493 53.3509 83.2622 55.5436C87.5043 59.2732 91.6584 63.3572 96.2399 66.6539C99.11 68.7104 102.148 70.5888 105.281 72.2869C106.18 72.6061 107.119 72.8886 108.073 73.1401ZM110.851 73.5472C106.584 71.1788 102.922 67.3912 99.2552 64.3828C92.0564 58.4755 84.5913 53.3254 76.3368 48.9987C76.0965 48.873 75.8586 48.7486 75.6424 48.6153C78.1411 50.2118 80.5485 51.9119 82.893 53.8062C88.5767 58.3876 94.2086 62.9588 100.157 67.1811C102.146 68.5862 104.074 70.1868 106.165 71.4339C107.546 72.2538 109.171 72.9729 110.851 73.5472ZM102.067 62.1024C101.046 60.9179 100.02 59.713 98.9831 58.5601C93.0466 53.3333 85.4131 49.7134 78.1739 47.1979C77.6704 47.0287 77.1916 46.8539 76.6811 46.6626C76.9658 46.7744 77.2207 46.8691 77.4831 46.9879C86.3195 50.4566 94.8433 55.7989 102.067 62.1024ZM91.987 66.0084C90.6399 64.5771 89.3765 63.0953 87.9344 61.7688C85.3294 59.3533 82.4772 57.1917 79.7473 54.941C83.6596 59.05 87.416 62.9073 91.987 66.0084ZM114.583 74.2076C112.965 73.1107 111.409 71.9721 109.958 70.697L109.944 70.7279C109.806 70.8461 109.609 70.8571 109.491 70.7196C107.208 68.3798 105.253 65.8114 102.817 63.6189C97.2988 58.6124 90.9097 54.1767 84.1791 50.7247C90.0709 53.8893 95.5793 57.7482 100.594 62.188C105.015 66.087 108.738 71.0304 113.992 73.9174C114.172 74.0114 114.374 74.0984 114.583 74.2076ZM133.979 9.07405C132.928 9.55335 131.892 10.0783 130.944 10.7242C129.606 11.6442 128.543 12.878 127.155 13.7144C119.021 18.564 110.854 23.5477 103.153 29.0632C100.82 30.719 98.6073 32.5135 96.3998 34.3309C96.1006 34.5747 95.7868 34.8495 95.4965 35.1149C97.0409 33.98 98.8074 33.1531 100.426 32.1697C103.852 30.0966 107.212 27.9673 110.638 25.8942C116.293 22.4723 122.039 19.0195 127.318 15.0393C129.363 13.4983 131.208 11.569 133.127 9.86637C133.434 9.5694 133.709 9.33311 133.979 9.07405ZM128.898 14.5691C128.499 14.895 128.124 15.2134 127.719 15.5147C122.416 19.5024 116.647 22.9621 110.975 26.4138C107.55 28.4887 104.189 30.6162 100.763 32.6911C99.9454 33.1967 99.0618 33.6478 98.2147 34.1382C99.9591 33.3182 101.717 32.5426 103.409 31.6377C107.67 29.3522 111.741 26.6999 115.988 24.3699C119.508 22.442 123.846 20.5585 126.677 17.5434C127.421 16.5598 128.14 15.5837 128.898 14.5691ZM118.83 13.2396C112.717 16.0803 107.367 20.1579 102.868 25.1969C101.164 27.1062 99.4514 29.2193 97.6389 31.3392C98.7361 30.3707 99.8327 29.4003 100.901 28.4165C104.257 25.2371 107.633 22.1285 111.168 19.1184C113.629 16.9964 116.148 14.9802 118.83 13.2396ZM132.803 8.91642L132.425 8.98419C131.438 9.26865 130.443 9.60442 129.494 10.0011C127.286 10.9436 125.443 12.3223 123.428 13.5539C120.855 15.1587 118.172 16.65 115.671 18.4092C113.584 19.8882 111.69 21.5832 109.609 23.0868C106.198 25.5307 102.906 28.1135 99.7247 30.8121C100.728 30.0232 101.745 29.2787 102.784 28.5272C110.509 23.0041 118.698 18.0134 126.825 13.1398C128.192 12.3123 129.255 11.0785 130.578 10.1895C131.296 9.68871 132.065 9.27344 132.849 8.90196L132.803 8.91642ZM124.499 20.2526C121.923 22.0858 118.917 23.5038 116.308 24.921C112.063 27.2504 107.992 29.9027 103.731 32.1864C103.197 32.4792 102.656 32.7479 102.094 33.0255C108.787 30.5286 115.346 28.0759 121.158 23.4782C122.423 22.4815 123.506 21.3896 124.499 20.2526ZM127.991 9.99667C126.352 10.4345 124.729 10.918 123.126 11.4686C118.913 13.589 115.193 16.4806 111.566 19.5944C108.669 22.0784 105.883 24.6024 103.097 27.2036C105.095 25.6017 107.137 24.0595 109.241 22.5508C111.299 21.056 113.216 19.354 115.304 17.8744C117.803 16.1139 120.48 14.6004 123.083 13.0103C124.74 11.9902 126.292 10.8794 127.991 9.99667ZM164.729 27.9916C159.589 29.2251 154.437 31.6131 150.559 34.8056C147.556 37.2717 144.629 40.0651 141.549 42.6082C142.053 42.3002 142.526 41.9756 142.97 41.6377C149.337 36.8156 155.996 31.401 163.499 28.4517C163.9 28.2998 164.328 28.1417 164.729 27.9916ZM168.084 34.5522C166.134 35.5136 164.008 36.1526 161.904 36.8619C159.096 37.7916 156.297 38.9174 153.43 39.6647C151.837 40.0881 150.186 40.4792 148.577 40.9341C146.788 41.768 144.976 42.6113 143.195 43.4692C143.217 43.4622 143.263 43.4478 143.285 43.4408C146.444 42.4275 149.69 41.9372 152.899 41.1582C157.575 40.0454 162.345 38.5019 166.495 36.0256C167.04 35.5303 167.561 35.0406 168.084 34.5522ZM163 38.5219C159.797 39.9509 156.412 40.9594 153.06 41.7591C150.105 42.4588 147.106 42.9469 144.199 43.8062C150.646 42.59 157.091 41.8491 163 38.5219ZM172.629 26.9455C171.963 26.9774 171.374 27.0118 170.837 27.0559C168.43 27.509 166.071 28.1217 163.707 29.0362C156.362 31.9358 149.853 37.1798 143.614 41.9356C143.966 41.7767 144.322 41.6387 144.702 41.4956C146.097 40.6833 147.48 39.8242 148.869 38.9896C152.922 36.5196 156.793 33.6296 161.037 31.4509C164.731 29.5923 168.617 27.9498 172.629 26.9455ZM176.313 26.8945L176.237 26.8918C171.03 27.6714 166.02 29.6393 161.344 32.0305C157.115 34.1801 153.266 37.0613 149.214 39.5332C148.665 39.8551 148.122 40.1998 147.58 40.5439C147.829 40.4658 148.081 40.3871 148.338 40.3331C153.988 37.6878 159.651 35.0893 165.254 32.3837C166.99 31.5396 168.771 30.7571 170.493 29.8668C172.398 28.8445 174.32 27.7172 176.366 26.9022L176.313 26.8945ZM175.19 28.0965C173.69 28.8156 172.248 29.6443 170.785 30.4027C169.071 31.3145 167.291 32.0971 165.532 32.9481C160.993 35.144 156.402 37.2568 151.843 39.3862C152.328 39.2585 152.79 39.1384 153.276 39.0125C156.121 38.2722 158.918 37.1451 161.729 36.2167C164.583 35.2725 167.519 34.4285 169.929 32.6982C170.881 31.7485 171.842 30.8227 172.869 29.9491C173.627 29.3364 174.378 28.7015 175.19 28.0965ZM161.524 58.8141C161.465 58.7818 161.434 58.7671 161.376 58.7348C161.091 58.623 160.783 58.5205 160.498 58.4087C160.469 58.3916 160.438 58.3769 160.408 58.3617C160.355 58.3521 160.303 58.3438 160.272 58.3292C160.668 58.5564 161.041 58.7887 161.422 59.045C161.432 58.9931 161.44 58.9399 161.448 58.8868C161.463 58.8577 161.48 58.828 161.524 58.8141ZM187.525 69.9031C184.467 67.481 181.392 65.164 177.869 63.3361C175.041 61.8935 171.81 61.0763 168.799 60.1658C166.871 59.5943 164.878 59.0651 162.88 58.5885L162.992 58.6285C164.529 59.2253 166.035 59.8803 167.541 60.5353C168.515 60.9305 169.496 61.3499 170.469 61.7475C175.115 63.6481 179.592 65.2503 183.972 67.7353C185.137 68.422 186.338 69.148 187.525 69.9031ZM198.075 82.6741C191.274 80.5979 184.941 77.2224 179.189 72.989C175.636 70.3446 172.094 67.5731 168.625 64.8029C167.45 63.8434 166.246 62.8687 164.977 62.0134C165.512 62.5219 166.03 63.0619 166.525 63.6071C167.075 64.0864 167.627 64.5652 168.176 65.0427C172.41 68.9008 177.035 72.3362 181.778 75.5072C184.336 77.2107 186.869 79.1477 189.699 80.3643C191.486 80.9558 193.302 81.4891 195.112 82.0003C196.112 82.2373 197.083 82.4592 198.075 82.6741ZM195.348 81.0741C189.226 78.1338 183.732 73.9192 178.212 69.788C174.877 67.2782 171.21 65.0691 167.618 62.9405C167.064 62.6123 166.535 62.2767 165.975 61.9264C167.01 62.68 168.015 63.4918 169.02 64.3035C172.465 67.0813 176.008 69.8528 179.56 72.4954C184.426 76.0564 189.724 79.0048 195.348 81.0741ZM200.576 82.5186C198.768 81.4568 197.053 80.2907 195.277 79.1683C190.664 76.2569 186.042 73.4722 181.532 70.4029C178.421 68.296 175.222 66.1433 171.933 64.3437C170.183 63.3895 168.425 62.4867 166.66 61.5617C167.095 61.8276 167.527 62.0922 167.96 62.3562C171.559 64.5095 175.25 66.7111 178.623 69.2596C185.503 74.4669 192.397 79.7958 200.576 82.5186ZM202.697 82.9809C201.39 81.7623 200.099 80.5146 198.654 79.4142C193.828 75.8165 188.542 72.9149 183.399 69.8185C178.216 66.6836 172.843 63.6572 167.287 61.1646L167.175 61.1246C168.872 61.9957 170.577 62.8908 172.259 63.791C175.577 65.6059 178.785 67.782 181.918 69.8801C186.428 72.9495 191.044 75.712 195.657 78.6252C197.947 80.1105 200.243 81.6953 202.697 82.9809ZM185.434 78.7201C184.083 77.84 182.764 76.9012 181.438 76.0155C177.543 73.4028 173.723 70.6188 170.146 67.582C171.417 69.0106 172.766 70.4413 174.26 71.7779C177.61 74.8087 181.396 77.0046 185.434 78.7201ZM194.201 75.5741C193.741 75.1435 193.281 74.7112 192.821 74.2788C189.893 72.1917 186.692 70.0378 183.651 68.3107C180.887 66.7486 178.057 65.532 175.192 64.3748C178.078 65.9251 180.924 67.5873 183.732 69.2881C187.213 71.3785 190.769 73.395 194.201 75.5741ZM224.491 40.9313C221.447 41.9105 218.316 42.6897 215.149 43.2789C210.355 44.1788 205.61 44.8382 200.723 45.4423C198.627 45.6966 196.487 45.9666 194.417 46.4645C197.574 46.3266 200.8 46.5691 204.119 46.3073C211.082 45.78 218.089 43.9621 224.491 40.9313ZM225.768 32.0687C218.458 33.0049 211.121 35.202 204.802 38.5824C201.784 40.2029 198.957 42.1148 196.105 44.0324C198.924 42.6508 201.77 41.3579 204.618 40.0669C211.588 36.9332 218.466 33.9037 225.768 32.0687ZM231.353 31.6232C231.331 31.6301 231.302 31.6149 231.28 31.6218C221.931 33.0707 213.493 36.7875 204.879 40.661C202.137 41.8946 199.429 43.1422 196.718 44.4675C197.043 44.3902 197.377 44.3363 197.688 44.29C200.258 43.1587 202.81 41.8849 205.373 40.8067C211.648 38.1668 218.051 35.9372 224.515 33.7394C226.976 32.894 229.148 32.1633 231.353 31.6232ZM229.46 38.274C223.661 40.1154 217.689 41.4083 211.755 42.3405C208.538 42.8461 205.105 43.945 201.867 44.3822C201.072 44.4809 200.301 44.5721 199.552 44.6563C199.051 44.8131 198.55 44.9699 198.056 45.1507C198.92 45.0306 199.759 44.918 200.628 44.8207C205.515 44.2165 210.261 43.559 215.033 42.666C219.736 41.7945 224.287 40.5202 228.72 38.7064C228.889 38.6029 229.041 38.531 229.185 38.435C229.271 38.3839 229.376 38.3264 229.46 38.274ZM243.527 31.7682C234.569 32.5449 225.726 35.2111 217.289 38.0531C212.648 39.607 208.071 41.1149 203.51 42.843C203.783 42.7574 204.042 42.7009 204.313 42.6158C208.618 41.3437 212.873 40.1619 217.232 39.0733C225.149 37.1209 235.598 34.0756 243.527 31.7682ZM238.287 33.9585C231.381 35.9455 223.598 38.1564 217.381 39.7027C213.043 40.7843 208.786 41.9667 204.506 43.2313C204.325 43.288 204.142 43.3453 203.961 43.402C206.522 42.8764 209.185 42.118 211.69 41.7334C218.79 40.6132 226.022 38.9502 232.866 36.4567C234.612 35.5614 236.453 34.7334 238.287 33.9585ZM239.741 31.5772C238.035 31.5593 236.345 31.587 234.639 31.5709C231.247 32.1578 228.3 33.1291 224.754 34.3404C218.427 36.4955 212.131 38.667 205.983 41.2407C209.669 39.9124 213.359 38.6823 217.096 37.4376C224.386 35.0057 232.03 32.6635 239.741 31.5772Z" fill="#6A7F30" fill-opacity="0.5"/>
</svg>
