<svg width="171" height="154" viewBox="0 0 171 154" fill="none" xmlns="http://www.w3.org/2000/svg">
<path d="M34.7742 89.8887L34.8715 89.8637L36.3576 89.4873C43.858 87.5176 50.6294 83.108 55.6533 77.2265C59.002 73.3831 61.635 68.9746 64.0366 64.5097C64.8439 63.0155 66.0535 60.7752 66.9472 59.3664C67.11 59.095 67.3641 58.732 67.5426 58.4717C67.7042 58.229 67.8919 57.9928 68.062 57.7626C68.1043 57.707 68.1056 57.7011 68.2217 57.563C68.3025 57.4597 68.3859 57.338 68.4581 57.1994C74.9983 52.8248 82.2384 49.5915 90.1153 48.4847C99.8489 47.0472 109.641 48.5173 119.232 50.6553C128.749 53.8453 137.753 58.2121 146.064 63.6312C150.038 66.653 154.034 69.6454 158.041 72.6169C158.098 72.6567 158.153 72.6925 158.211 72.7244C161.227 75.3058 164.12 78.0441 166.874 80.9323C166.55 80.7533 166.231 80.5781 165.923 80.4147C154.882 74.5643 142.739 71.1819 130.4 69.4918C130.387 69.4872 130.375 69.4827 130.361 69.4775C128.115 68.5749 125.463 67.3321 123.215 66.4399C118.308 64.4448 113.231 62.8021 107.95 62.0958C101.526 61.1977 94.5483 61.92 89.056 65.612C87.2336 66.8114 85.6071 68.3026 84.2306 69.9833C83.8014 70.3702 83.8825 71.0991 84.384 71.3863L84.4704 71.4358L85.7953 72.2094C92.5278 76.0643 100.456 77.6704 108.169 77.0055C113.256 76.6152 118.23 75.3217 123.077 73.8279C124.703 73.3285 127.138 72.5806 128.766 72.2045C129.07 72.1262 129.507 72.0464 129.817 71.9838C130.051 71.9369 130.292 71.9038 130.527 71.8688C142.718 73.8603 154.789 77.5119 165.494 83.7014C166.442 84.2615 167.639 85.0073 168.562 85.6131C171.458 87.5721 174.376 89.8009 176.563 92.4948C176.578 92.5137 176.594 92.53 176.61 92.5476C179.139 95.9896 181.502 99.5867 183.677 103.334C184.148 104.144 185.187 104.42 185.998 103.951C186.462 103.682 186.751 103.227 186.826 102.734C186.88 102.366 186.815 101.978 186.614 101.632C184.387 97.7986 181.947 94.0847 179.313 90.5123C179.279 90.4595 179.242 90.4099 179.201 90.3603C176.587 86.8271 173.785 83.432 170.809 80.2032C164.747 73.6276 157.956 67.7189 150.624 62.6422C148.604 61.2421 146.539 59.9074 144.436 58.6341C135.629 52.172 126.931 45.5653 118.424 38.7224C118.197 38.4217 117.996 38.1078 117.793 37.7783C116.541 35.7065 115.174 33.1188 113.916 31.0536C111.2 26.5086 108.134 22.142 104.342 18.398C99.7542 13.814 93.746 10.189 87.1317 9.82758C84.9522 9.68593 82.7537 9.89707 80.6413 10.4072C80.0646 10.458 79.6908 11.0877 79.9178 11.6184L79.9565 11.7111L80.5477 13.1263C83.6024 20.253 88.9645 26.3073 95.5262 30.4199C99.8246 33.1726 104.577 35.1348 109.35 36.861C110.948 37.4427 113.345 38.3124 114.871 38.9922C115.083 39.0794 115.349 39.2089 115.587 39.3241C120.354 43.3524 125.185 47.3036 130.065 51.1945C128.941 50.7054 127.812 50.2312 126.675 49.778C124.565 48.9353 122.428 48.152 120.269 47.4283C120.233 47.4153 120.195 47.4016 120.158 47.3912C113.482 45.1603 106.588 43.5026 99.583 42.4475C97.4789 42.1312 95.3449 41.8654 93.2364 41.6596C93.2364 41.6596 93.2364 41.6596 93.2351 41.6589C86.717 41.0223 80.503 39.5253 74.4304 37.0986L72.87 36.5227C71.3664 35.9669 69.6348 35.3645 68.091 34.916C67.8648 34.8426 67.608 34.7653 67.3348 34.6881C67.1916 34.6217 67.0484 34.5521 66.9026 34.4811C64.7409 33.389 62.2074 31.9225 60.0431 30.8421C57.2217 29.4003 54.3468 28.0854 51.3516 27.0091C43.5791 24.172 34.4787 22.8652 26.8099 26.7042C24.6098 27.794 22.6005 29.2708 20.8955 31.0247C20.4342 31.3744 20.4513 32.1074 20.9275 32.4357L21.0099 32.4931L22.2632 33.3779C28.64 37.7965 36.401 40.0765 44.1435 40.0759C49.2462 40.1239 54.3119 39.2627 59.2708 38.1901C60.9334 37.8329 63.4239 37.2972 65.0782 37.0616C65.3205 37.0207 65.6399 36.9855 65.9188 36.9562C70.5987 38.3815 75.007 40.5232 79.6801 42.1066C80.605 42.3989 81.5913 42.6988 82.5214 42.9774C82.9711 43.0935 84.1462 43.3879 84.5762 43.4975C85.5403 43.7636 86.9048 44.0086 87.885 44.2126C89.0601 44.4776 91.4562 44.8037 92.7357 45.0098C92.7428 45.0117 92.7507 45.0124 92.7585 45.013C92.7977 45.0195 92.8383 45.0266 92.8748 45.0317C92.8853 45.0337 92.8964 45.0343 92.9075 45.0349C92.9075 45.0349 92.9088 45.0356 92.9101 45.0362C93.3989 45.0837 93.8902 45.1357 94.3822 45.1896C83.8624 46.089 74.551 49.7011 65.2901 56.6604C63.2404 57.4808 60.8922 58.3239 58.9509 59.1427C54.0564 61.1579 49.2875 63.5472 45.0321 66.7437C39.8275 70.6049 35.3666 76.011 34.0492 82.4938C33.5925 84.6276 33.4823 86.8325 33.6803 88.9951C33.6461 89.572 34.2166 90.0354 34.7742 89.8887ZM56.1405 31.8546C56.8498 32.1538 57.5552 32.4641 58.2594 32.7771C57.6831 32.6925 57.1133 32.6113 56.5709 32.5306C55.3804 32.4015 53.6078 32.2029 52.4205 32.0738C50.8852 31.9721 48.1339 31.7335 46.6051 31.6743C45.4873 31.6254 42.7604 31.5181 41.6243 31.4699C41.118 31.448 40.6921 31.8414 40.6708 32.3464C40.6509 32.852 41.0456 33.2785 41.5486 33.3005L44.8336 33.5322C45.7869 33.6036 47.1778 33.684 48.1115 33.7914C49.2837 33.9212 51.8913 34.1535 53.0068 34.3252C53.8196 34.4393 55.4382 34.6656 56.2497 34.7791C57.4952 34.9911 59.0159 35.2731 60.2615 35.5112C60.302 35.5216 60.3445 35.5313 60.3856 35.5404C58.8574 35.7849 57.3326 36.0555 55.869 36.2816C50.0855 37.2082 44.192 37.6966 38.3816 36.8248C34.0597 36.2043 29.8732 34.8761 25.9312 32.9974C25.0446 32.5725 24.118 32.0836 23.2188 31.5921C33.205 24.3819 45.4734 27.3061 56.1405 31.8546ZM113.14 34.4167C106.902 29.2759 100.776 23.9952 94.7968 18.5391C94.4638 18.2346 93.9445 18.2584 93.642 18.5941C93.3434 18.9219 93.3652 19.4288 93.6865 19.734C98.9788 24.7713 104.395 29.6712 109.91 34.4605C109.087 34.1178 108.271 33.7803 107.484 33.4407C102.089 31.1505 96.835 28.4329 92.374 24.6071C89.0417 21.7853 86.201 18.438 83.8601 14.752C83.3353 13.9214 82.8104 13.0156 82.3103 12.1222C94.6097 11.3254 103.451 20.3202 110.069 29.8371C111.123 31.3409 112.135 32.8742 113.14 34.4167ZM121.765 68.5768C121.699 68.5717 121.635 68.566 121.569 68.5609C116.681 68.2034 111.565 68.0868 106.669 68.2232L104.187 68.2931C103.006 68.36 103.011 70.1015 104.245 70.1136C107.425 70.0699 110.888 70.0733 114.057 70.2229C117.418 70.3519 120.876 70.6258 124.281 71.0134C122.672 71.409 121.066 71.8431 119.525 72.2183C113.842 73.6386 108.014 74.6312 102.15 74.2611C97.7906 74.0138 93.506 73.0496 89.417 71.5155C88.4972 71.167 87.5316 70.7599 86.5947 70.3474C95.9222 62.3068 108.397 64.1672 119.414 67.7835C120.201 68.0382 120.983 68.3052 121.765 68.5768ZM38.4483 86.4536C37.5495 86.8498 36.5762 87.2351 35.6192 87.5975C36.6163 75.3228 46.804 67.9078 57.1866 62.7664C57.804 62.4569 58.4247 62.1572 59.0473 61.8601C57.7039 63.0875 56.3547 64.3854 54.9991 65.7617C52.6452 68.157 50.3987 70.6448 48.2136 73.1829C47.9007 73.546 47.9429 74.094 48.306 74.4069C48.6679 74.7192 49.2133 74.679 49.5262 74.3223C51.7395 71.8587 54.0077 69.4486 56.3702 67.1408C58.5886 64.9718 60.9247 62.881 63.3735 60.9278C62.3437 62.5674 61.3571 64.271 60.3789 65.853C57.3302 70.8476 53.8767 75.6424 49.4403 79.4879C46.1643 82.3656 42.4372 84.6811 38.4483 86.4536Z" fill="#6A7F30" fill-opacity="0.5"/>
<path d="M100.84 68.3751C100.966 68.4376 101.074 68.521 101.165 68.6267C101.257 68.733 101.326 68.8518 101.37 68.985C101.416 69.1168 101.433 69.2527 101.423 69.3931C101.414 69.5323 101.377 69.6656 101.316 69.7899C101.253 69.9154 101.17 70.024 101.063 70.1163C100.958 70.2073 100.839 70.2755 100.706 70.3201C100.573 70.3648 100.437 70.382 100.296 70.3725C100.158 70.3623 100.025 70.3273 99.8996 70.2648C99.774 70.2023 99.6648 70.1169 99.5731 70.0126C99.4808 69.9063 99.4126 69.7875 99.368 69.6543C99.3233 69.5211 99.3061 69.3853 99.315 69.2461C99.3258 69.1063 99.3608 68.9736 99.4233 68.8481C99.4852 68.7239 99.5705 68.6146 99.6749 68.523C99.7812 68.4307 99.9 68.3625 100.032 68.3191C100.166 68.2745 100.302 68.2572 100.442 68.2668C100.581 68.2757 100.714 68.3126 100.84 68.3751Z" fill="#6A7F30" fill-opacity="0.5"/>
<path d="M92.3214 16.3134C92.4469 16.3759 92.5549 16.4607 92.6478 16.5657C92.7388 16.6713 92.807 16.7901 92.8517 16.9233C92.8963 17.0564 92.9136 17.1923 92.9047 17.3315C92.8951 17.4719 92.8588 17.604 92.7963 17.7295C92.7345 17.8537 92.6504 17.9636 92.5447 18.0546C92.4384 18.1469 92.3197 18.2151 92.1871 18.2585C92.054 18.3031 91.9181 18.3204 91.7789 18.3115C91.6385 18.3019 91.5065 18.2656 91.3809 18.2031C91.2554 18.1406 91.1468 18.0572 91.0545 17.9509C90.9622 17.8446 90.894 17.7258 90.8493 17.5926C90.8053 17.4614 90.7868 17.3249 90.7976 17.1851C90.8065 17.0459 90.8435 16.9126 90.9053 16.7884C90.9678 16.6628 91.0512 16.5542 91.1575 16.4619C91.2619 16.3703 91.382 16.3028 91.5139 16.2574C91.647 16.2128 91.7829 16.1955 91.9233 16.2051C92.0632 16.2159 92.1958 16.251 92.3214 16.3134Z" fill="#6A7F30" fill-opacity="0.5"/>
<path d="M88.9833 16.3099C88.4063 16.2234 88.0088 15.6845 88.0946 15.1088C88.1811 14.5318 88.7193 14.1356 89.2963 14.2221C89.8733 14.3086 90.2708 14.8474 90.185 15.4231C90.0985 16.0001 89.5603 16.3963 88.9833 16.3099Z" fill="#6A7F30" fill-opacity="0.5"/>
<path d="M97.6782 69.4137C97.5924 69.9894 97.0549 70.3876 96.4785 70.2998C95.9002 70.2127 95.5034 69.6758 95.5898 69.0988C95.6763 68.5218 96.2132 68.1249 96.7902 68.2114C97.3678 68.2998 97.7647 68.8367 97.6782 69.4137Z" fill="#6A7F30" fill-opacity="0.5"/>
<path d="M45.8597 76.2668C45.9462 75.6898 46.4844 75.2936 47.0614 75.3801C47.6384 75.4665 48.0359 76.0054 47.9501 76.5811C47.8636 77.1581 47.3254 77.5543 46.7484 77.4678C46.1714 77.3813 45.7732 76.8438 45.8597 76.2668Z" fill="#6A7F30" fill-opacity="0.5"/>
<path d="M44.044 78.535C44.1318 77.9586 44.6687 77.5618 45.2456 77.6482C45.8226 77.7347 46.2208 78.2723 46.1343 78.8493C46.0479 79.4263 45.5097 79.8225 44.9327 79.736C44.3557 79.6495 43.9582 79.1107 44.044 78.535Z" fill="#6A7F30" fill-opacity="0.5"/>
<path d="M38.7897 31.0643C38.9289 31.0863 39.0576 31.1324 39.178 31.2054C39.2977 31.2764 39.3997 31.3696 39.4829 31.4811C39.5654 31.594 39.6244 31.718 39.658 31.8538C39.6929 31.9903 39.6984 32.1268 39.6784 32.2654C39.6571 32.4032 39.6103 32.5333 39.5393 32.653C39.4663 32.7733 39.3738 32.8741 39.2622 32.9573C39.1487 33.0411 39.0253 33.0988 38.8889 33.1337C38.7531 33.1673 38.6165 33.1727 38.4767 33.1521C38.3388 33.1308 38.21 33.0846 38.0891 33.013C37.9687 32.9401 37.868 32.8475 37.7835 32.7353C37.701 32.6224 37.6419 32.4984 37.6084 32.3626C37.5748 32.2268 37.568 32.0896 37.5893 31.9517C37.6093 31.8132 37.6561 31.6831 37.7284 31.5641C37.8 31.4431 37.8926 31.3423 38.0055 31.2598C38.1177 31.1753 38.2423 31.1183 38.3782 31.0847C38.514 31.0511 38.6512 31.0443 38.7897 31.0643Z" fill="#6A7F30" fill-opacity="0.5"/>
<path d="M35.7593 31.0914C35.8978 31.1114 36.0266 31.1576 36.1469 31.2305C36.2659 31.3028 36.3687 31.3947 36.4512 31.5076C36.535 31.6211 36.594 31.7451 36.6276 31.8809C36.6612 32.0167 36.668 32.1539 36.6467 32.2918C36.6267 32.4303 36.5805 32.5591 36.5076 32.6794C36.4353 32.7985 36.3434 32.9012 36.2305 32.9837C36.1176 33.0662 35.9936 33.1252 35.8578 33.1588C35.722 33.1924 35.5848 33.1992 35.447 33.1779C35.3071 33.1572 35.1783 33.1111 35.058 33.0381C34.9383 32.9671 34.8362 32.8739 34.7537 32.7611C34.6692 32.6488 34.6122 32.5242 34.5767 32.389C34.5431 32.2532 34.5363 32.116 34.5583 31.9768C34.5783 31.8383 34.6244 31.7095 34.6973 31.5892C34.7696 31.4702 34.8609 31.3688 34.9744 31.2849C35.0873 31.2024 35.2113 31.1434 35.3471 31.1098C35.4829 31.0763 35.6201 31.0695 35.7593 31.0914Z" fill="#6A7F30" fill-opacity="0.5"/>
</svg>
