<svg width="129" height="51" viewBox="0 0 129 51" fill="none" xmlns="http://www.w3.org/2000/svg">
  <path
    d="M55.24 19.704C54.952 19.896 54.56 20.112 54.064 20.352C53.568 20.592 52.984 20.792 52.312 20.952C51.656 21.112 50.936 21.192 50.152 21.192C48.808 21.176 47.592 20.936 46.504 20.472C45.432 20.008 44.52 19.376 43.768 18.576C43.016 17.776 42.432 16.856 42.016 15.816C41.616 14.76 41.416 13.64 41.416 12.456C41.416 11.16 41.624 9.968 42.04 8.88C42.472 7.776 43.072 6.824 43.84 6.024C44.608 5.208 45.512 4.576 46.552 4.128C47.608 3.68 48.76 3.456 50.008 3.456C51.048 3.456 51.992 3.6 52.84 3.888C53.688 4.16 54.416 4.488 55.024 4.872L54.088 7.032C53.608 6.712 53.024 6.408 52.336 6.12C51.664 5.832 50.912 5.688 50.08 5.688C49.232 5.688 48.432 5.856 47.68 6.192C46.928 6.528 46.264 7 45.688 7.608C45.112 8.216 44.656 8.928 44.32 9.744C44 10.544 43.84 11.408 43.84 12.336C43.84 13.28 43.984 14.16 44.272 14.976C44.576 15.776 45 16.472 45.544 17.064C46.104 17.656 46.776 18.12 47.56 18.456C48.344 18.792 49.224 18.96 50.2 18.96C51.08 18.96 51.864 18.824 52.552 18.552C53.24 18.28 53.808 17.976 54.256 17.64L55.24 19.704ZM57.4321 21L65.0161 2.928H65.1601L72.7201 21H70.0561L64.3921 6.576L66.0481 5.496L59.7121 21H57.4321ZM61.8721 14.424H68.3281L69.0961 16.44H61.2001L61.8721 14.424ZM75.9882 21V3.096H76.0122L85.1082 16.008L84.1242 15.816L93.1962 3.096H93.2442V21H90.9402V8.376L91.0842 9.552L84.5322 18.816H84.4842L77.8362 9.552L78.2442 8.472V21H75.9882ZM102.862 3.648C104.126 3.648 105.206 3.864 106.102 4.296C106.998 4.712 107.686 5.32 108.166 6.12C108.662 6.92 108.91 7.888 108.91 9.024C108.91 9.712 108.806 10.392 108.598 11.064C108.39 11.72 108.054 12.32 107.59 12.864C107.142 13.392 106.55 13.816 105.814 14.136C105.078 14.456 104.182 14.616 103.126 14.616H100.558V21H98.2304V3.648H102.862ZM103.102 12.384C103.79 12.384 104.358 12.272 104.806 12.048C105.254 11.824 105.606 11.544 105.862 11.208C106.118 10.856 106.302 10.488 106.414 10.104C106.526 9.72 106.582 9.376 106.582 9.072C106.582 8.72 106.526 8.36 106.414 7.992C106.302 7.608 106.11 7.264 105.838 6.96C105.582 6.64 105.238 6.384 104.806 6.192C104.39 5.984 103.87 5.88 103.246 5.88H100.558V12.384H103.102Z"
    fill="black" />
  <path
    d="M40.888 27.624H44.152L48.472 40.008L48.016 39.816L51.376 31.2L52.672 34.992L47.872 45.816L40.888 27.624ZM49.456 27.624H52.216L57.016 39.744L56.464 39.648L60.448 27.624H63.448L56.632 45.768L49.456 27.624ZM62.6307 45L70.3587 26.808H70.5267L78.2547 45H75.0387L69.5907 31.2L71.6067 29.832L65.3907 45H62.6307ZM67.4787 38.52H73.4547L74.4147 40.896H66.6387L67.4787 38.52ZM78.6051 27.528H90.2931V30.216H85.7811V45H82.9971V30.216H78.6051V27.528ZM106.477 27.528C107.805 27.528 108.941 27.752 109.885 28.2C110.829 28.648 111.549 29.288 112.045 30.12C112.557 30.952 112.813 31.96 112.813 33.144C112.813 33.832 112.701 34.52 112.477 35.208C112.269 35.896 111.933 36.52 111.469 37.08C111.021 37.64 110.413 38.096 109.645 38.448C108.893 38.784 107.965 38.952 106.861 38.952H104.341V45H101.533V27.528H106.477ZM106.861 36.24C107.469 36.24 107.981 36.136 108.397 35.928C108.813 35.72 109.133 35.456 109.357 35.136C109.597 34.816 109.765 34.488 109.861 34.152C109.973 33.8 110.029 33.488 110.029 33.216C110.029 32.928 109.981 32.616 109.885 32.28C109.789 31.928 109.629 31.6 109.405 31.296C109.181 30.976 108.869 30.72 108.469 30.528C108.069 30.32 107.557 30.216 106.933 30.216H104.341V36.24H106.861ZM112.67 45L120.398 26.808H120.566L128.294 45H125.078L119.63 31.2L121.646 29.832L115.43 45H112.67ZM117.518 38.52H123.494L124.454 40.896H116.678L117.518 38.52Z"
    fill="#275942" />
  <path
    d="M34.8188 17.5791C34.1675 13.6476 31.8549 10.1543 28.7513 7.71176C26.8991 6.25454 24.8065 5.14992 22.6114 4.30687C19.9647 3.28973 16.4838 3.20932 14.1615 1.51438C14.0545 1.13086 13.9476 0.749985 13.8407 0.364692C13.7311 -0.0294371 13.1178 -0.154922 12.9216 0.244509C9.16239 7.89557 -1.99077 14.6788 0.309498 24.4561C2.06452 31.918 10.799 34.7786 17.8465 34.5638C17.8173 37.7964 17.6874 41.0033 17.4692 44.1466C17.4188 44.8766 18.5031 44.8439 18.5879 44.1466C18.9785 40.9194 19.1959 37.6983 19.2613 34.4772C19.5008 34.4551 19.7456 34.4392 19.9797 34.4101C28.237 33.3611 36.3202 26.6326 34.8188 17.5791ZM19.1844 5.20559C18.7196 5.68014 18.2963 6.22538 17.8969 6.69462C17.3012 7.39451 16.7313 8.11384 16.1613 8.83406C15.6982 7.04987 15.2095 5.26745 14.7076 3.47354C16.0535 4.30775 17.5734 4.69746 19.1844 5.20559ZM13.2256 2.26729C13.3202 2.36804 13.42 2.45375 13.5173 2.54654C14.5706 5.7632 15.3907 9.08061 16.027 12.4537C13.846 11.0345 11.331 9.93426 9.02011 8.79075C10.6382 6.76355 12.1838 4.69216 13.2256 2.26729ZM8.36794 9.60464C10.9103 11.1414 13.5544 12.9706 16.3177 14.0576C16.6756 16.159 16.9672 18.279 17.1926 20.4096C13.1735 18.2048 8.95118 16.3004 4.79073 14.3731C5.86619 12.694 7.12104 11.1502 8.36794 9.60464ZM3.4104 16.8421C3.69141 16.2439 4.00512 15.6695 4.33651 15.1083C8.49078 17.3653 12.6618 19.6956 16.9672 21.6424C17.0945 21.6998 17.2155 21.7034 17.3286 21.6848C17.5443 23.9833 17.691 26.2906 17.7714 28.5962C12.638 25.8126 7.4542 23.0899 2.31107 20.3186C2.48251 19.2263 2.83511 18.0678 3.4104 16.8421ZM2.24568 20.8382C6.72426 24.5409 12.2924 27.7505 17.7952 29.6416C17.8209 30.604 17.8465 31.5654 17.8518 32.5251C10.2175 32.8061 1.43268 28.6024 2.24568 20.8382ZM17.9596 16.8669C17.8094 16.0327 17.6591 15.1985 17.4851 14.3748C17.7634 14.2573 17.926 13.849 17.653 13.6246C17.5239 13.5185 17.3843 13.4231 17.2518 13.3206C16.9787 12.0949 16.68 10.8772 16.3716 9.6612C17.1413 8.93391 17.9048 8.20221 18.6462 7.444C19.1985 6.8802 19.8816 6.27663 20.3597 5.6006C22.3436 6.29519 24.2604 7.16563 25.9977 8.31091C25.9597 8.32681 25.9226 8.33565 25.8846 8.36393C22.873 10.5696 20.0151 13.682 17.9596 16.8669ZM18.6321 21.2642C18.4942 20.0853 18.3255 18.9215 18.1319 17.7691C19.5397 16.3932 20.8254 14.8927 22.2102 13.4929C23.6347 12.0525 25.1626 10.6916 26.5235 9.19195C26.6393 9.06382 26.6649 8.90387 26.6411 8.75099C27.6467 9.47651 28.587 10.2992 29.4238 11.2607C29.8719 11.775 30.2625 12.2937 30.6142 12.8142C28.5101 14.3218 26.7471 16.3782 24.9329 18.2136C22.9384 20.232 20.9324 22.2389 18.9308 24.2502C18.846 23.256 18.7479 22.261 18.6321 21.2642ZM19.5944 25.2373C21.6968 23.2198 23.7955 21.1979 25.9049 19.1875C27.7068 17.4696 29.7101 15.7976 31.2372 13.8181C32.3268 15.7658 32.7845 17.7311 32.7395 19.6214C28.7416 24.1477 24.3019 27.6188 19.2692 30.9566C19.2639 30.9601 19.2622 30.9645 19.2569 30.968C19.2242 29.0999 19.1508 27.2309 19.0121 25.361C19.1959 25.429 19.4098 25.414 19.5944 25.2373ZM19.2869 32.4164C19.2869 32.1822 19.2745 31.9481 19.2728 31.7139C19.3965 31.7917 19.5573 31.8208 19.7323 31.7466C24.5361 29.7158 28.8927 26.2164 32.3489 22.2318C30.8899 27.473 25.5709 31.6688 19.2869 32.4164Z"
    fill="#275942" />
</svg>