<svg width="41" height="40" viewBox="0 0 41 40" fill="none" xmlns="http://www.w3.org/2000/svg">
<g clip-path="url(#clip0_15_612)">
<path d="M20.5648 15.0874C21.0149 14.8672 21.4206 14.5764 21.7734 14.2307C22.6117 15.0528 23.7668 15.5617 25.0403 15.5617C25.8712 15.5617 26.6511 15.3441 27.3262 14.9651C28.0418 16.577 29.6755 17.7067 31.5728 17.7067C32.2495 17.7067 32.8921 17.5619 33.4722 17.3038V22.2206C33.4722 24.1601 31.8703 25.7382 29.9012 25.7382H28.3065C27.5517 25.7382 26.9396 26.341 26.9396 27.0846V38.6537C26.9396 39.3973 27.5517 40.0001 28.3065 40.0001C29.0614 40.0001 29.6734 39.3973 29.6734 38.6537V28.431H29.9012C33.3776 28.431 36.2059 25.6451 36.2059 22.2207V5.69024C36.2059 3.73535 34.5914 2.14478 32.6066 2.14478H30.539C30.1588 2.14478 29.7924 2.2035 29.4483 2.31165C28.9385 0.963232 27.6185 0 26.0741 0H24.0065C23.1635 0 22.3881 0.287542 21.7741 0.767407C21.16 0.287542 20.3845 0 19.5415 0H17.4739C16.6309 0 15.8554 0.287677 15.2413 0.767407C14.6274 0.287677 13.8519 0 13.0089 0H10.9414C8.95677 0 7.34211 1.5903 7.34211 3.54532V10.8718C5.85584 11.308 4.7687 12.6657 4.7687 14.2695V16.3061C4.7687 17.6611 5.54464 18.8404 6.68156 19.4369C6.68156 19.4369 7.12074 21.389 7.26705 22.0396C8.00416 25.3158 10.6458 27.7737 13.8747 28.3177V38.6537C13.8747 39.3973 14.4867 40.0001 15.2416 40.0001C15.9965 40.0001 16.6085 39.3973 16.6085 38.6537V27.0846C16.6085 26.341 15.9965 25.7382 15.2416 25.7382C15.1743 25.7382 15.1072 25.737 15.0402 25.7347C12.5825 25.6492 10.4834 23.8902 9.9359 21.4571C9.84552 21.0558 9.57466 19.8514 9.57466 19.8514H15.9343C17.2736 19.8514 18.4813 19.2882 19.328 18.3903C19.9863 18.9304 20.4073 19.742 20.4073 20.65V24.9397C20.4073 25.6832 21.0193 26.2861 21.7742 26.2861C22.5291 26.2861 23.1411 25.6832 23.1411 24.9397V20.65C23.1411 18.6684 22.0966 16.9239 20.5223 15.9189C20.5512 15.7125 20.5648 15.3015 20.5648 15.0874ZM10.9414 2.69266H13.0089C13.4863 2.69266 13.8747 3.07515 13.8747 3.54532V10.7243H10.0758V3.54532C10.0758 3.07515 10.4641 2.69266 10.9414 2.69266ZM15.9343 17.1588H8.36801C7.89068 17.1588 7.50236 16.7763 7.50236 16.3061V14.2695C7.50236 13.7993 7.89068 13.4168 8.36801 13.4168H15.9343C16.9815 13.4168 17.8338 14.2562 17.8338 15.2878C17.8338 16.3195 16.9815 17.1588 15.9343 17.1588ZM16.6084 10.7731V3.54532C16.6084 3.07515 16.9967 2.69266 17.474 2.69266H19.5417C20.019 2.69266 20.4073 3.07515 20.4073 3.54532V10.9981C20.4073 11.6238 20.0927 12.1774 19.6124 12.5172C18.8944 11.5947 17.828 10.949 16.6084 10.7731ZM25.0403 12.8691C23.9931 12.8691 23.1408 12.0298 23.1408 10.9981V3.54532C23.1408 3.07515 23.5292 2.69266 24.0065 2.69266H26.0741C26.5515 2.69266 26.9398 3.07515 26.9398 3.54532V10.9981C26.9398 12.0296 26.0875 12.8691 25.0403 12.8691ZM31.5728 15.014C30.5256 15.014 29.6733 14.1747 29.6733 13.143V5.69024C29.6733 5.22007 30.0616 4.83744 30.539 4.83744H32.6066C33.0839 4.83744 33.4722 5.22007 33.4722 5.69024V13.143C33.4722 14.1747 32.6201 15.014 31.5728 15.014Z" fill="#115533"/>
</g>
<defs>
<clipPath id="clip0_15_612">
<rect width="40.6091" height="40" fill="white" transform="translate(0.182735)"/>
</clipPath>
</defs>
</svg>
