<svg width="48" height="50" viewBox="0 0 48 50" fill="none" xmlns="http://www.w3.org/2000/svg">
  <g filter="url(#filter0_d_6_83)">
    <path
      d="M4 7.986C4.00366 7.46076 4.2138 6.95803 4.58503 6.58644C4.95625 6.21484 5.45876 6.00419 5.984 6H42.016C43.112 6 44 6.89 44 7.986V40.014C43.9963 40.5392 43.7862 41.042 43.415 41.4136C43.0438 41.7852 42.5412 41.9958 42.016 42H5.984C5.45763 41.9995 4.95299 41.79 4.58098 41.4176C4.20896 41.0452 4 40.5404 4 40.014V7.986ZM16 10V38H32V10H16ZM8 10V14H12V10H8ZM36 10V14H40V10H36ZM8 18V22H12V18H8ZM36 18V22H40V18H36ZM8 26V30H12V26H8ZM36 26V30H40V26H36ZM8 34V38H12V34H8ZM36 34V38H40V34H36Z"
      fill="white"
    />
  </g>
  <defs>
    <filter id="filter0_d_6_83" x="-4" y="0" width="56" height="56" filterUnits="userSpaceOnUse" color-interpolation-filters="sRGB">
      <feFlood flood-opacity="0" result="BackgroundImageFix" />
      <feColorMatrix in="SourceAlpha" type="matrix" values="0 0 0 0 0 0 0 0 0 0 0 0 0 0 0 0 0 0 127 0" result="hardAlpha" />
      <feOffset dy="4" />
      <feGaussianBlur stdDeviation="2" />
      <feComposite in2="hardAlpha" operator="out" />
      <feColorMatrix type="matrix" values="0 0 0 0 0 0 0 0 0 0 0 0 0 0 0 0 0 0 0.25 0" />
      <feBlend mode="normal" in2="BackgroundImageFix" result="effect1_dropShadow_6_83" />
      <feBlend mode="normal" in="SourceGraphic" in2="effect1_dropShadow_6_83" result="shape" />
    </filter>
  </defs>
</svg>
